<?xml version="1.0" encoding="UTF-8"?><!DOCTYPE svg PUBLIC "-//W3C//DTD SVG 1.1//EN" "http://www.w3.org/Graphics/SVG/1.1/DTD/svg11.dtd"><svg xmlns="http://www.w3.org/2000/svg" xmlns:xlink="http://www.w3.org/1999/xlink"><defs/><symbol id="actions" viewBox="21.23 14.23 5.53 19.53">
<g id="option-vertical_2_">
	<path id="option_2_" d="M26.766,17c0,1.527-1.238,2.766-2.766,2.766S21.234,18.527,21.234,17s1.238-2.766,2.766-2.766   S26.766,15.473,26.766,17z M24,21.234c-1.527,0-2.766,1.238-2.766,2.766s1.238,2.766,2.766,2.766s2.766-1.238,2.766-2.766   S25.527,21.234,24,21.234z M24,28.234c-1.527,0-2.766,1.238-2.766,2.766s1.238,2.766,2.766,2.766s2.766-1.238,2.766-2.766   S25.527,28.234,24,28.234z"/>
</g>
</symbol><symbol id="add-outline" viewBox="0.6 0.6 23.2 23.1">
<path d="M5.1,7.4L2.9,5.2C1.6,7,0.8,9,0.6,11.2h3.1C3.9,9.8,4.3,8.5,5.1,7.4z"/>
<path d="M10.8,3.8V0.6c-2.2,0.3-4.3,1-6,2.6L7,5.4C8.1,4.5,9.5,4,10.8,3.8z"/>
<path d="M17.4,5.4l2.2-2.2c-1.8-1.4-3.9-2.3-6-2.6v3.1C14.9,4,16.2,4.5,17.4,5.4z"/>
<path d="M20.7,11.2h3.1c-0.2-2.1-1-4.2-2.3-6l-2.2,2.2C20,8.5,20.5,9.8,20.7,11.2z"/>
<path d="M13.6,20.6v3.1c2-0.2,3.9-0.9,5.6-2.3L17,19.2C15.9,19.9,14.8,20.4,13.6,20.6z"/>
<path d="M3.8,13.8H0.6c0.3,2,1.1,4,2.5,5.7l2.2-2.2C4.6,16.3,4.1,15.1,3.8,13.8z"/>
<path d="M20.6,13.8c-0.3,1.2-0.8,2.4-1.6,3.5l2.2,2.2c1.3-1.7,2.2-3.6,2.5-5.7H20.6z"/>
<path d="M7.4,19.2l-2.2,2.2c1.7,1.2,3.6,2,5.6,2.3v-3.1C9.6,20.4,8.4,19.9,7.4,19.2z"/>
<path d="M14,6.4v3.8h3.8c0.3,0,0.5,0.2,0.5,0.5v2.9c0,0.3-0.2,0.5-0.5,0.5H14v3.8c0,0.3-0.2,0.5-0.5,0.5h-2.8  c-0.3,0-0.5-0.2-0.5-0.5V14H6.4C6.1,14,6,13.8,6,13.5v-2.9c0-0.3,0.2-0.5,0.5-0.5h3.8V6.4c0-0.3,0.2-0.5,0.5-0.5h2.8  C13.8,5.9,14,6.2,14,6.4z"/>
</symbol><symbol id="add" viewBox="11.75 11.75 24.5 24.5">
<g id="plus-sign_2_">
	<path d="M24,11.75c-6.765,0-12.25,5.483-12.25,12.25S17.235,36.25,24,36.25S36.25,30.767,36.25,24S30.765,11.75,24,11.75z    M31.086,25.519c0,0.278-0.227,0.506-0.506,0.506h-4.555v4.618c0,0.279-0.227,0.507-0.506,0.507h-3.037   c-0.279,0-0.506-0.228-0.506-0.507v-4.618H17.42c-0.279,0-0.506-0.228-0.506-0.506v-3.037c0-0.278,0.227-0.506,0.506-0.506h4.555   v-4.555c0-0.279,0.228-0.507,0.506-0.507h3.037c0.279,0,0.506,0.227,0.506,0.507v4.555h4.555c0.279,0,0.506,0.228,0.506,0.506   V25.519z"/>
</g>
</symbol><symbol id="advanced-filters" viewBox="13 12 23 24">
<g id="adjust-alt_2_">
	<path d="M27,21h-1v-9h-3v9h-1c-0.55,0-1,0.45-1,1v3c0,0.55,0.45,1,1,1h1h3h1c0.55,0,1-0.45,1-1v-3C28,21.45,27.55,21,27,21z M27,24   h-5v-0.5h5V24z"/>
	<path d="M35,16h-1v-4h-3v4h-1c-0.55,0-1,0.45-1,1v3c0,0.55,0.45,1,1,1h1h3h1c0.55,0,1-0.45,1-1v-3C36,16.45,35.55,16,35,16z M35,19   h-5v-0.5h5V19z"/>
	<rect x="23" y="27" width="3" height="9"/>
	<path d="M19,26h-1V12h-3v14h-1c-0.55,0-1,0.45-1,1v3c0,0.55,0.45,1,1,1h1h3h1c0.55,0,1-0.45,1-1v-3C20,26.45,19.55,26,19,26z    M19,29h-5v-0.5h5V29z"/>
	<rect x="31" y="22" width="3" height="14"/>
	<rect x="15" y="32" width="3" height="4"/>
</g>
</symbol><symbol id="alert" viewBox="10.92 11.04 26.16 22.96">
<g id="alert_2_">
	<path d="M36.845,32.268L25,11.751c-0.55-0.953-1.45-0.953-2,0L11.155,32.268c-0.55,0.953-0.1,1.732,1,1.732h23.691   C36.945,34,37.395,33.221,36.845,32.268z M26,31.5c0,0.275-0.225,0.5-0.5,0.5h-3c-0.275,0-0.5-0.225-0.5-0.5v-3   c0-0.275,0.225-0.5,0.5-0.5h3c0.275,0,0.5,0.225,0.5,0.5V31.5z M26,22.5c0,0.275-0.044,0.721-0.098,0.99l-0.9,2.77   C24.949,26.529,24.68,27,24.404,27h-0.785c-0.275,0-0.545-0.471-0.6-0.74l-0.92-2.645c-0.055-0.27-0.1-0.84-0.1-1.115v-4   c0-0.275,0.225-0.5,0.5-0.5h3c0.275,0,0.5,0.225,0.5,0.5V22.5z"/>
</g>
</symbol><symbol id="alternative-view" viewBox="13 13 22 22">
<g id="show-big-thumbnails_2_">
	<path style="fill-rule:evenodd;clip-rule:evenodd;" d="M25.5,35c-0.275,0-0.5-0.225-0.5-0.5v-9c0-0.275,0.225-0.5,0.5-0.5h9   c0.275,0,0.5,0.225,0.5,0.5v9c0,0.275-0.225,0.5-0.5,0.5H25.5z M22.5,35c0.275,0,0.5-0.225,0.5-0.5v-9c0-0.275-0.225-0.5-0.5-0.5   h-9c-0.275,0-0.5,0.225-0.5,0.5v9c0,0.275,0.225,0.5,0.5,0.5H22.5z M34.5,23c0.275,0,0.5-0.225,0.5-0.5v-9   c0-0.275-0.225-0.5-0.5-0.5h-9c-0.275,0-0.5,0.225-0.5,0.5v9c0,0.275,0.225,0.5,0.5,0.5H34.5z M22.5,23c0.275,0,0.5-0.225,0.5-0.5   v-9c0-0.275-0.225-0.5-0.5-0.5h-9c-0.275,0-0.5,0.225-0.5,0.5v9c0,0.275,0.225,0.5,0.5,0.5H22.5z"/>
</g>
</symbol><symbol id="apply" viewBox="11.75 11.75 24.5 24.5">
<g id="ok-sign_2_">
	<path d="M32.662,15.338c-4.784-4.784-12.54-4.784-17.324,0s-4.784,12.54,0,17.324s12.54,4.784,17.324,0   C37.445,27.878,37.446,20.122,32.662,15.338z M31.06,20.987l-8.512,8.511c-0.127,0.128-0.337,0.128-0.465,0l-5.164-5.165   c-0.128-0.127-0.128-0.336,0-0.465l2.134-2.133c0.128-0.128,0.337-0.128,0.464,0l2.567,2.567c0.128,0.127,0.337,0.127,0.465,0   l5.896-5.895c0.127-0.128,0.337-0.129,0.467-0.002l2.146,2.118C31.187,20.651,31.187,20.859,31.06,20.987z"/>
</g>
</symbol><symbol id="arrow-down" viewBox="15.54 14 16.92 19.99">
<g id="arrow-down_2_">
	<path d="M15.819,23H21v-8.487C21,14.237,21.237,14,21.513,14h4.977C26.764,14,27,14.237,27,14.513V23h5.181   c0.275,0,0.362,0.187,0.194,0.404l-8.069,10.428c-0.168,0.217-0.443,0.216-0.611-0.002l-8.069-10.425   C15.457,23.188,15.545,23,15.819,23z"/>
</g>
</symbol><symbol id="arrow-left" viewBox="14.01 15.54 19.99 16.92">
<g id="arrow-left_2_">
	<path d="M24.596,32.375l-10.424-8.069c-0.218-0.168-0.22-0.443-0.002-0.611l10.427-8.069C24.815,15.457,25,15.544,25,15.819V21   h8.489C33.765,21,34,21.236,34,21.511v4.977C34,26.763,33.765,27,33.489,27H25v5.181C25,32.455,24.813,32.543,24.596,32.375z"/>
</g>
</symbol><symbol id="arrow-right" viewBox="14 15.54 19.99 16.92">
<g id="arrow-right_2_">
	<path d="M23,32.181V27h-8.487C14.237,27,14,26.763,14,26.487v-4.977C14,21.236,14.237,21,14.513,21H23v-5.181   c0-0.275,0.186-0.362,0.404-0.194l10.428,8.069c0.218,0.168,0.216,0.443-0.002,0.611l-10.425,8.069   C23.187,32.543,23,32.455,23,32.181z"/>
</g>
</symbol><symbol id="arrow-up" viewBox="15.54 14.01 16.92 19.99">
<g id="arrow-up_2_">
	<path d="M32.181,25H27v8.487C27,33.763,26.763,34,26.487,34h-4.977C21.236,34,21,33.763,21,33.487V25h-5.181   c-0.275,0-0.362-0.187-0.194-0.404l8.069-10.428c0.168-0.218,0.443-0.215,0.611,0.002l8.069,10.425   C32.543,24.812,32.455,25,32.181,25z"/>
</g>
</symbol><symbol id="attachment" viewBox="11.54 12 25.4 23.06">
<g id="paperclip_2_">
	<path d="M24.082,35.068c-0.39,0-0.982-0.877-1.238-1.133c-0.096-0.096-0.096-0.258,0-0.354c3.388-3.389,6.776-6.777,10.164-10.166   c1.076-1.076,1.859-2.324,1.977-3.884c0.195-2.589-1.56-4.985-4.142-5.451c-3.023-0.545-4.898,1.549-6.798,3.449   c-2.209,2.21-4.419,4.42-6.629,6.63c-1.523,1.523-4.203,3.412-3.849,5.844c0.401,2.756,3.819,3.379,5.639,1.56   c0.454-0.454,0.907-0.907,1.361-1.361c2.167-2.168,4.334-4.335,6.502-6.503c1.137-1.138,2.273-2.274,3.411-3.411   c1.363-1.364-0.385-3.155-1.731-1.805c-0.419,0.36-0.792,0.792-1.183,1.183c-1.712,1.713-5.909,5.924-6.307,6.303   c-0.202,0.191-0.662,0.876-0.969,0.569c-0.347-0.347-0.693-0.693-1.04-1.04c-0.096-0.096-0.096-0.258,0-0.353   c1.583-1.579,6.725-6.854,8.04-8.06c0.917-0.84,2.062-1.255,3.221-1.036c2.68,0.506,3.185,3.85,1.417,5.618   c-0.454,0.454-0.907,0.907-1.361,1.361c-2.167,2.168-4.335,4.335-6.502,6.503c-1.473,1.473-3.075,3.619-4.991,4.552   c-2.381,1.159-5.389,0.438-6.794-1.86c-1.302-2.129-0.817-4.937,0.917-6.67c3.516-3.517,7.033-7.034,10.549-10.551   c0.695-0.694,1.368-1.39,2.218-1.905c2.078-1.261,4.733-1.461,6.95-0.44c4.665,2.146,5.298,8.385,1.806,11.877   c-3.436,3.437-6.872,6.873-10.308,10.31C24.325,34.93,24.222,35.068,24.082,35.068z"/>
</g>
</symbol><symbol id="back" viewBox="14.01 15.54 19.99 16.92">
<g id="arrow-left_2_">
	<path d="M24.596,32.375l-10.424-8.069c-0.218-0.168-0.22-0.443-0.002-0.611l10.427-8.069C24.815,15.457,25,15.544,25,15.819V21   h8.489C33.765,21,34,21.236,34,21.511v4.977C34,26.763,33.765,27,33.489,27H25v5.181C25,32.455,24.813,32.543,24.596,32.375z"/>
</g>
</symbol><symbol id="bin" viewBox="14 10 20 26">
<g id="bin_2_">
	<path d="M33.5,14H28v-2c0-1.1-0.9-2-2-2h-4c-1.1,0-2,0.9-2,2v2h-5.5c-0.275,0-0.5,0.225-0.5,0.5v1c0,0.275,0.225,0.5,0.5,0.5h19   c0.275,0,0.5-0.225,0.5-0.5v-1C34,14.225,33.775,14,33.5,14z M22.042,14H22v-2h4v2H22.042z"/>
	<path d="M32.294,17H15.5c-0.39,0-0.5,0.176-0.5,0.5v18.174c0,0,0.11,0.326,0.5,0.326h16.794C32.684,36,33,35.824,33,35.5V17.413   C33,17.089,32.684,17,32.294,17z M20,32.5c0,0.276-0.224,0.5-0.5,0.5h-1c-0.276,0-0.5-0.224-0.5-0.5v-12c0-0.276,0.224-0.5,0.5-0.5   h1c0.276,0,0.5,0.224,0.5,0.5V32.5z M25,32.5c0,0.275-0.225,0.5-0.5,0.5h-1c-0.275,0-0.5-0.225-0.5-0.5v-12   c0-0.275,0.225-0.5,0.5-0.5h1c0.275,0,0.5,0.225,0.5,0.5V32.5z M30,32.5c0,0.276-0.224,0.5-0.5,0.5h-1c-0.276,0-0.5-0.224-0.5-0.5   v-12c0-0.276,0.224-0.5,0.5-0.5h1c0.276,0,0.5,0.224,0.5,0.5V32.5z"/>
	<path style="opacity:0.3;" d="M20,32.5c0,0.275-0.225,0.5-0.5,0.5h-1c-0.275,0-0.5-0.225-0.5-0.5v-12c0-0.275,0.225-0.5,0.5-0.5h1   c0.275,0,0.5,0.225,0.5,0.5V32.5z M25,32.5c0,0.275-0.225,0.5-0.5,0.5h-1c-0.275,0-0.5-0.225-0.5-0.5v-12   c0-0.275,0.225-0.5,0.5-0.5h1c0.275,0,0.5,0.225,0.5,0.5V32.5z M30,32.5c0,0.275-0.225,0.5-0.5,0.5h-1c-0.275,0-0.5-0.225-0.5-0.5   v-12c0-0.275,0.225-0.5,0.5-0.5h1c0.275,0,0.5,0.225,0.5,0.5V32.5z"/>
</g>
</symbol><symbol id="bookmark" viewBox="17 12 15 23.64">
<g id="bookmark_2_">
	<path d="M31.5,12h-14c-0.275,0-0.5,0.225-0.5,0.5v22.875c0,0.274,0.28,0.353,0.475,0.158l7.086-6.283l6.908,6.172   C31.663,35.616,32,35.578,32,35.125V12.5C32,12.225,31.775,12,31.5,12z"/>
</g>
</symbol><symbol id="bring-forward" viewBox="12 12 19 19">
<g id="bring-forward_2_">
	<g>
		<path d="M16,21h-2v-7h7v2h2v-3c0-0.55-0.45-1-1-1h-9c-0.55,0-1,0.45-1,1v9c0,0.55,0.45,1,1,1h3V21z"/>
	</g>
	<g style="opacity:0.5;">
		<path d="M16,17.875C16,16.841,16.841,16,17.875,16H21v-2h-7v7h2V17.875z"/>
	</g>
	<g>
		<path d="M30,17H18c-0.55,0-1,0.45-1,1v12c0,0.55,0.45,1,1,1h12c0.55,0,1-0.45,1-1V18C31,17.45,30.55,17,30,17z M28,28h-8v-8h8V28z    "/>
	</g>
</g>
</symbol><symbol id="cancel" viewBox="11.75 11.75 24.5 24.5">
<g id="ban-circle_1_">
	<path d="M11.75,24c0,6.755,5.495,12.25,12.25,12.25c6.755,0,12.25-5.495,12.25-12.25S30.755,11.75,24,11.75   C17.245,11.75,11.75,17.245,11.75,24z M33,24c0,1.766-0.519,3.409-1.4,4.801l-12.4-12.4C20.591,15.519,22.234,15,24,15   C28.963,15,33,19.037,33,24z M15,24c0-1.765,0.518-3.408,1.399-4.799l12.399,12.399C27.408,32.482,25.765,33,24,33   C19.037,33,15,28.963,15,24z"/>
</g>
</symbol><symbol id="certificate" viewBox="16.15 12.15 16.71 24.85">
<g id="certificate_2_">
	<g>
		<polygon points="28.88,28.088 27.296,30.937 24.5,29.26 21.704,30.937 20.12,28.088 19,28.105 19,37 24.5,32 30,36.993 30,28.105       "/>
		<path d="M31.512,20.5l1.342-2.238l-2.281-1.268l0.043-2.609l-2.609,0.042l-1.268-2.28L24.5,13.489l-2.238-1.343l-1.268,2.28    l-2.609-0.042l0.043,2.609l-2.281,1.268l1.342,2.238l-1.342,2.238l2.281,1.268l-0.043,2.609l2.609-0.042l1.268,2.28l2.238-1.343    l2.238,1.343l1.268-2.28l2.609,0.042l-0.043-2.609l2.281-1.268L31.512,20.5z M23.698,16.451l-1.01-0.65l-0.576,1.102l-1.246-0.021    l0.029,1.267l-1.099,0.613l0.653,0.935L18.756,21l0.482-0.65l-1.008-1.604l1.712-0.913l-0.031-1.941l1.959,0.041l0.951-1.706    l1.53,1.011L25,14.759L23.698,16.451z"/>
	</g>
</g>
</symbol><symbol id="check" viewBox="15 14.99 22.07 18.01">
<g id="check_2_">
	<path d="M31,27.307V30c0,0.55-0.45,1-1,1H18c-0.55,0-1-0.45-1-1V18c0-0.55,0.45-1,1-1h10.651l1.737-1.737   C29.955,15.101,29.49,15,29,15H19c-2.205,0-4,1.794-4,4v10c0,2.206,1.795,4,4,4h10c2.205,0,4-1.794,4-4v-3.693L31,27.307z"/>
	<path d="M36.92,17.454c0.199,0.196,0.2,0.52,0.002,0.718L25.918,29.175c-0.197,0.198-0.522,0.198-0.719,0l-5.896-5.896   c-0.197-0.197-0.197-0.522,0-0.72l2.334-2.333c0.197-0.198,0.521-0.198,0.719,0l2.844,2.843c0.197,0.197,0.521,0.197,0.72,0   l7.93-7.929c0.198-0.198,0.522-0.199,0.722-0.002L36.92,17.454z"/>
</g>
</symbol><symbol id="choose-file" viewBox="14 10 27 26">
<g id="file-plus_2_">
	<path d="M36,10c-2.761,0-5,2.238-5,5s2.239,5,5,5c2.761,0,5-2.238,5-5S38.761,10,36,10z M39,15.5c0,0.275-0.225,0.5-0.5,0.5H37v1.5   c0,0.275-0.225,0.5-0.5,0.5h-1c-0.275,0-0.5-0.225-0.5-0.5V16h-1.5c-0.275,0-0.5-0.225-0.5-0.5v-1c0-0.275,0.225-0.5,0.5-0.5H35   v-1.5c0-0.275,0.225-0.5,0.5-0.5h1c0.275,0,0.5,0.225,0.5,0.5V14h1.5c0.275,0,0.5,0.225,0.5,0.5V15.5z M26,18.5V12l2.715,2.715   C28.711,14.81,28.7,14.904,28.7,15c0,1.477,0.444,2.85,1.201,4H26.5C26.225,19,26,18.775,26,18.5z M30.696,20   c0.65,0.689,1.431,1.251,2.304,1.647V35.5c0,0.275-0.225,0.5-0.5,0.5h-18c-0.275,0-0.5-0.225-0.5-0.5v-23   c0-0.275,0.225-0.5,0.5-0.5H25v7.5c0,0.275,0.225,0.5,0.5,0.5H30.696z"/>
</g>
</symbol><symbol id="circle-arrow-down" viewBox="11.75 11.75 24.38 24.38">
<g id="circle-arrow-down_2_">
	<path d="M11.75,23.938c0,6.73,5.456,12.188,12.187,12.188s12.188-5.457,12.188-12.188S30.669,11.75,23.937,11.75   S11.75,17.207,11.75,23.938z M25.5,18c0.275,0,0.5,0.225,0.5,0.5V24h3.5c0.275,0,0.353,0.171,0.175,0.38l-5.35,6.24   c-0.179,0.209-0.472,0.21-0.651,0.001l-5.38-6.242C18.114,24.17,18.192,24,18.468,24H22v-5.5c0-0.275,0.225-0.5,0.5-0.5H25.5z"/>
</g>
</symbol><symbol id="circle-arrow-right" viewBox="11.75 11.75 24.38 24.38">
<g id="circle-arrow-right_2_">
	<path d="M11.75,23.938c0,6.731,5.457,12.188,12.187,12.188c6.731,0,12.188-5.456,12.188-12.188S30.668,11.75,23.937,11.75   C17.207,11.75,11.75,17.206,11.75,23.938z M18,22.5c0-0.275,0.225-0.5,0.5-0.5H24v-3.532c0-0.275,0.173-0.357,0.384-0.18   l6.398,5.329c0.211,0.176,0.211,0.465,0,0.641l-6.398,5.329C24.173,29.764,24,29.683,24,29.407V26h-5.5c-0.275,0-0.5-0.225-0.5-0.5   V22.5z"/>
</g>
</symbol><symbol id="circle-arrow-top" viewBox="12.75 11.75 24.38 24.38">
<g id="circle-arrow-top_2_">
	<path d="M24.937,36.125c6.731,0,12.188-5.457,12.188-12.188S31.669,11.75,24.937,11.75S12.75,17.207,12.75,23.938   S18.206,36.125,24.937,36.125z M23.5,30c-0.275,0-0.5-0.225-0.5-0.5V24h-3.532c-0.275,0-0.354-0.17-0.174-0.379l5.38-6.242   c0.18-0.209,0.473-0.208,0.651,0.001l5.35,6.24C30.853,23.829,30.775,24,30.5,24H27v5.5c0,0.275-0.225,0.5-0.5,0.5H23.5z"/>
</g>
</symbol><symbol id="circle" viewBox="27.5 27.5 45 45"><circle class="path" cx="50" cy="50" r="20" fill="none" stroke="currentColor" stroke-width="5" stroke-miterlimit="10"/></symbol><symbol id="close" viewBox="0.65 0.65 16.8 16.8">
<g id="remove_2_">
	<path d="M12,9l5.3-5.3c0.2-0.2,0.2-0.5,0-0.7L15,0.8c-0.2-0.2-0.5-0.2-0.7,0L9,6.1L3.8,0.8C3.6,0.6,3.2,0.6,3,0.8L0.8,3   c-0.2,0.2-0.2,0.5,0,0.7L6.1,9l-5.3,5.3c-0.2,0.2-0.2,0.5,0,0.7L3,17.2c0.2,0.2,0.5,0.2,0.7,0L9,12l5.3,5.3c0.2,0.2,0.5,0.2,0.7,0   l2.2-2.2c0.2-0.2,0.2-0.5,0-0.7L12,9z"/>
</g>
</symbol><symbol id="collapse" viewBox="13.51 16.83 20.99 14.17">
<g id="chevron-up_2_">
	<path id="chevron_x5F_up_2_" d="M34.492,27.324L30.816,31L24,24.184l-6.821,6.812l-3.672-3.672L24,16.83L34.492,27.324z"/>
</g>
</symbol><symbol id="compact" viewBox="12 12 24 24">
<g id="fit-frame-to-image_2_">
	<g>
		<path d="M35,12H13c-0.55,0-1,0.45-1,1v22c0,0.55,0.45,1,1,1h22c0.55,0,1-0.45,1-1V13C36,12.45,35.55,12,35,12z M34,34H14V14h20V34    z M31.03,18.384l-1.823,1.823l1.616,1.616C30.92,21.92,30.888,22,30.75,22h-4.5C26.112,22,26,21.888,26,21.75v-4.5    c0-0.138,0.08-0.17,0.177-0.073l1.616,1.616l1.823-1.823c0.097-0.097,0.256-0.097,0.354,0l1.061,1.06    C31.128,18.128,31.128,18.287,31.03,18.384z M31.03,29.97l-1.061,1.06c-0.097,0.097-0.256,0.097-0.354,0l-1.823-1.823    l-1.616,1.616C26.08,30.92,26,30.888,26,30.75v-4.5c0-0.138,0.112-0.25,0.25-0.25h4.5c0.138,0,0.17,0.08,0.073,0.177l-1.616,1.616    l1.823,1.823C31.128,29.713,31.128,29.872,31.03,29.97z M16.97,18.03l1.061-1.06c0.097-0.097,0.256-0.097,0.354,0l1.823,1.823    l1.616-1.616C21.92,17.08,22,17.112,22,17.25v4.5c0,0.138-0.112,0.25-0.25,0.25h-4.5c-0.138,0-0.17-0.08-0.073-0.177l1.616-1.616    l-1.823-1.823C16.872,18.287,16.872,18.128,16.97,18.03z M16.97,29.616l1.823-1.823l-1.616-1.616C17.08,26.08,17.112,26,17.25,26    h4.5c0.138,0,0.25,0.112,0.25,0.25v4.5c0,0.138-0.08,0.17-0.177,0.073l-1.616-1.616l-1.823,1.823    c-0.097,0.097-0.256,0.097-0.354,0l-1.061-1.06C16.872,29.872,16.872,29.713,16.97,29.616z"/>
	</g>
</g>
</symbol><symbol id="copy" viewBox="12 12 24 24">
<g id="copy_2_">
	<path d="M20,24.5V21l4,4h-3.5C20.225,25,20,24.775,20,24.5z M19.5,26H24v9.5c0,0.275-0.225,0.5-0.5,0.5h-11   c-0.275,0-0.5-0.225-0.5-0.5v-14c0-0.275,0.225-0.5,0.5-0.5H19v4.5C19,25.775,19.225,26,19.5,26z M26.021,17h5.957   C32.529,17,33,16.567,33,16.015v-0.982C33,14.481,32.529,14,31.979,14H31v-0.912C31,12.536,30.55,12,30,12h-2   c-0.55,0-1,0.536-1,1.088V14h-0.979C25.471,14,25,14.481,25,15.033v0.982C25,16.567,25.471,17,26.021,17z M26.8,28.2H25V31h1.8   V28.2z M35.5,15H34v2.019C34,17.57,33.55,18,33,18h-8c-0.55,0-1-0.43-1-0.981V15h-1.5c-0.275,0-0.5,0.237-0.5,0.513V21l2.8,2.8h2   v-3.79l5.992,5.991L27.792,31H35.5c0.275,0,0.5-0.151,0.5-0.427v-15.06C36,15.237,35.775,15,35.5,15z M30.611,26.001L28,23.389V25   h-3v2h3v1.612L30.611,26.001z"/>
</g>
</symbol><symbol id="counter" viewBox="11 12 25 25">
<g id="sort_2_">
	<path d="M32,16.5v16c0,0.275-0.225,0.5-0.5,0.5h-2c-0.275,0-0.5-0.225-0.5-0.5V19H15.542C15.267,19,15,18.775,15,18.5v-2   c0-0.275,0.267-0.5,0.542-0.5H31.5C31.775,16,32,16.225,32,16.5z M11.5,20c-0.275,0-0.5,0.225-0.5,0.5v16   c0,0.275,0.225,0.5,0.5,0.5h16c0.275,0,0.5-0.225,0.5-0.5V20H11.5z M35.5,12H19.542C19.267,12,19,12.225,19,12.5v2   c0,0.275,0.267,0.5,0.542,0.5H33v13.5c0,0.275,0.225,0.5,0.5,0.5h2c0.275,0,0.5-0.225,0.5-0.5v-16C36,12.225,35.775,12,35.5,12z"/>
</g>
</symbol><symbol id="date" viewBox="12 12 23 24">
<g id="calendar_2_">
	<path d="M12,19v16c0,0.55,0.45,1,1,1h21c0.55,0,1-0.45,1-1V19H12z M17,34h-3v-3h3V34z M17,30h-3v-3h3V30z M17,26h-3v-3h3V26z    M21,34h-3v-3h3V34z M21,30h-3v-3h3V30z M21,26h-3v-3h3V26z M25,34h-3v-3h3V34z M25,30h-3v-3h3V30z M25,26h-3v-3h3V26z M29,34h-3   v-3h3V34z M29,30h-3v-3h3V30z M29,26h-3v-3h3V26z M33,34h-3v-3h3V34z M33,30h-3v-3h3V30z M33,26h-3v-3h3V26z M35,15v3H12v-3   c0-0.55,0.45-1,1-1h2v-1c0-0.55,0.45-1,1-1h1c0.55,0,1,0.45,1,1v1h11v-1c0-0.55,0.45-1,1-1h1c0.55,0,1,0.45,1,1v1h2   C34.55,14,35,14.45,35,15z"/>
</g>
</symbol><symbol id="delete" viewBox="14 10 20 26">
<g id="bin_2_">
	<path d="M33.5,14H28v-2c0-1.1-0.9-2-2-2h-4c-1.1,0-2,0.9-2,2v2h-5.5c-0.275,0-0.5,0.225-0.5,0.5v1c0,0.275,0.225,0.5,0.5,0.5h19   c0.275,0,0.5-0.225,0.5-0.5v-1C34,14.225,33.775,14,33.5,14z M22.042,14H22v-2h4v2H22.042z"/>
	<path d="M32.294,17H15.5c-0.39,0-0.5,0.176-0.5,0.5v18.174c0,0,0.11,0.326,0.5,0.326h16.794C32.684,36,33,35.824,33,35.5V17.413   C33,17.089,32.684,17,32.294,17z M20,32.5c0,0.276-0.224,0.5-0.5,0.5h-1c-0.276,0-0.5-0.224-0.5-0.5v-12c0-0.276,0.224-0.5,0.5-0.5   h1c0.276,0,0.5,0.224,0.5,0.5V32.5z M25,32.5c0,0.275-0.225,0.5-0.5,0.5h-1c-0.275,0-0.5-0.225-0.5-0.5v-12   c0-0.275,0.225-0.5,0.5-0.5h1c0.275,0,0.5,0.225,0.5,0.5V32.5z M30,32.5c0,0.276-0.224,0.5-0.5,0.5h-1c-0.276,0-0.5-0.224-0.5-0.5   v-12c0-0.276,0.224-0.5,0.5-0.5h1c0.276,0,0.5,0.224,0.5,0.5V32.5z"/>
	<path style="opacity:0.3;" d="M20,32.5c0,0.275-0.225,0.5-0.5,0.5h-1c-0.275,0-0.5-0.225-0.5-0.5v-12c0-0.275,0.225-0.5,0.5-0.5h1   c0.275,0,0.5,0.225,0.5,0.5V32.5z M25,32.5c0,0.275-0.225,0.5-0.5,0.5h-1c-0.275,0-0.5-0.225-0.5-0.5v-12   c0-0.275,0.225-0.5,0.5-0.5h1c0.275,0,0.5,0.225,0.5,0.5V32.5z M30,32.5c0,0.275-0.225,0.5-0.5,0.5h-1c-0.275,0-0.5-0.225-0.5-0.5   v-12c0-0.275,0.225-0.5,0.5-0.5h1c0.275,0,0.5,0.225,0.5,0.5V32.5z"/>
</g>
</symbol><symbol id="download-alt" viewBox="12 12 24 24">
<g id="download-alt_2_">
	<path d="M33,29v2h-8.427l7.37-8.588C32.102,22.207,32.02,22,31.761,22H27v-9.511C27,12.229,26.804,12,26.545,12h-5.024   C21.262,12,21,12.229,21,12.489V22h-4.681c-0.26,0-0.343,0.208-0.184,0.413L23.507,31H15v-2h-3v6c0,0.55,0.45,1,1,1h22   c0.55,0,1-0.45,1-1v-6H33z"/>
</g>
</symbol><symbol id="download" viewBox="12 12 24 24">
<g id="download-alt_2_">
	<path d="M33,29v2h-8.427l7.37-8.588C32.102,22.207,32.02,22,31.761,22H27v-9.511C27,12.229,26.804,12,26.545,12h-5.024   C21.262,12,21,12.229,21,12.489V22h-4.681c-0.26,0-0.343,0.208-0.184,0.413L23.507,31H15v-2h-3v6c0,0.55,0.45,1,1,1h22   c0.55,0,1-0.45,1-1v-6H33z"/>
</g>
</symbol><symbol id="dual-list-all-back" viewBox="0 0 22 22">
<polyline points="0.1,0.1 3,0.1 3,3 0.1,3 0.1,0.1 "/>
<polyline points="0.1,6 3,6 3,8.9 0.1,8.9 0.1,6 "/>
<polyline points="0.1,11.9 3,11.9 3,14.8 0.1,14.8 0.1,11.9 "/>
<polyline points="19.6,8.9 6,8.9 6,6 19.6,6 19.6,8.9 "/>
<rect x="6" y="0.1" width="13.6" height="3"/>
<polygon points="16.7,12.1 11.2,17 16.7,21.9 16.7,18.5 22,18.5 22,15.1 16.7,15.1 "/>
<polygon style="fill:none;" points="11.2,17 16.7,21.9 16.7,18.5 22,18.5 22,15.1 16.7,15.1 16.7,14.8 13.7,14.8 "/>
<polygon points="12.4,11.9 6,11.9 6,14.8 9.2,14.8 9.2,14.8 "/>
<polygon points="13.7,14.8 16.7,14.8 16.7,12.1 "/>
</symbol><symbol id="dual-list-all" viewBox="0 0 22 22">
<polyline points="0.2,0.2 3.1,0.2 3.1,3.1 0.2,3.1 0.2,0.2 "/>
<polyline points="0.2,6.1 3.1,6.1 3.1,9 0.2,9 0.2,6.1 "/>
<polyline points="0.2,12 3.1,12 3.1,14.9 0.2,14.9 0.2,12 "/>
<polyline points="9,14.9 6.1,14.9 6.1,12 9,12 9,14.9 "/>
<polyline points="19.7,9 6.1,9 6.1,6.1 19.7,6.1 19.7,9 "/>
<rect x="6.1" y="0.2" width="13.6" height="3"/>
<polygon points="16.1,14 10.8,14 10.8,17.6 16.1,17.6 16.1,21.2 21.6,15.9 16.1,10.7 "/>
</symbol><symbol id="duplicate" viewBox="12 13 24 23">
<g id="duplicate_2_">
	<path d="M26,24v11.5c0,0.275-0.225,0.5-0.5,0.5h-13c-0.275,0-0.5-0.225-0.5-0.5v-17c0-0.275,0.225-0.5,0.5-0.5H20v5.5   c0,0.275,0.225,0.5,0.5,0.5H26z M21,18v4.5c0,0.275,0.225,0.5,0.5,0.5H26L21,18z M30,18.5V13h-7.5c-0.275,0-0.5,0.225-0.5,0.5   v3.586l5,5V31h8.5c0.275,0,0.5-0.225,0.5-0.5V19h-5.5C30.225,19,30,18.775,30,18.5z M31.5,18H36l-5-5v4.5   C31,17.775,31.225,18,31.5,18z"/>
</g>
</symbol><symbol id="edit-img" viewBox="11.98 11.98 24.04 24.04">
<g id="pencil_2_">
	<path d="M29.687,14.232l0.51,0.511l3.06,3.06l0.511,0.51l0.51-0.51l1.021-1.019l0.509-0.512c0.281-0.279,0.282-0.738,0-1.02   l-3.059-3.059c-0.282-0.282-0.741-0.281-1.021-0.001l-0.511,0.51l-1.019,1.021L29.687,14.232z"/>
	<rect x="14.996" y="21.04" transform="matrix(0.7071 -0.7071 0.7071 0.7071 -9.8662 24.0313)" width="18.158" height="5.771"/>
	<path d="M14.379,29.54l-2.364,6.152c-0.101,0.262,0.03,0.393,0.292,0.292l6.152-2.363L14.379,29.54z"/>
</g>
</symbol><symbol id="envelope" viewBox="12 16 24 16">
<g id="envelope_2_">
	<path d="M24,28L12,16h24L24,28z M24,30l-5-5l-7,7h24l-7-7L24,30z M30,24l6,6V18L30,24z M12,18v12l6-6L12,18z"/>
</g>
</symbol><symbol id="error" viewBox="12 12 24 24">
<g id="light-beacon_2_">
	<path d="M30.917,32l-2.025-11.039C28.677,19.883,27.6,19,26.5,19h-5c-1.1,0-2.177,0.883-2.392,1.961L17.083,32H30.917z    M20.953,21.354C20.981,21.212,21.24,21,21.385,21h1.987c-0.145,0-0.403,0.212-0.432,0.354L21.361,30h-1.987L20.953,21.354z    M23,15.5v-3c0-0.275,0.225-0.5,0.5-0.5h1c0.275,0,0.5,0.225,0.5,0.5v3c0,0.275-0.225,0.5-0.5,0.5h-1C23.225,16,23,15.775,23,15.5z    M29.263,17.985c-0.195-0.194-0.195-0.513,0-0.707l2.139-2.14c0.194-0.194,0.513-0.194,0.707,0l0.768,0.768   c0.195,0.194,0.195,0.513,0,0.707l-2.14,2.14c-0.194,0.194-0.513,0.194-0.707,0L29.263,17.985z M33,34v2H15v-2c0-0.55,0.45-1,1-1   h16C32.55,33,33,33.45,33,34z M36,23.5v1c0,0.275-0.225,0.5-0.5,0.5h-3c-0.275,0-0.5-0.225-0.5-0.5v-1c0-0.275,0.225-0.5,0.5-0.5h3   C35.775,23,36,23.225,36,23.5z M15.5,25h-3c-0.275,0-0.5-0.225-0.5-0.5v-1c0-0.275,0.225-0.5,0.5-0.5h3c0.275,0,0.5,0.225,0.5,0.5   v1C16,24.775,15.775,25,15.5,25z M15.138,16.613c-0.194-0.194-0.194-0.513,0-0.707l0.768-0.768c0.195-0.194,0.513-0.194,0.707,0   l2.14,2.14c0.194,0.194,0.194,0.513,0,0.707l-0.768,0.768c-0.195,0.194-0.513,0.194-0.707,0L15.138,16.613z"/>
</g>
</symbol><symbol id="exclamation-sign" viewBox="11.75 11.75 24.5 24.5">
<g id="exclamation-sign_2_">
	<path d="M24,11.75c-6.765,0-12.25,5.484-12.25,12.25S17.235,36.25,24,36.25c6.765,0,12.25-5.484,12.25-12.25S30.765,11.75,24,11.75   z M26,31.5c0,0.275-0.225,0.5-0.5,0.5h-3c-0.275,0-0.5-0.225-0.5-0.5v-3c0-0.275,0.225-0.5,0.5-0.5h3c0.275,0,0.5,0.225,0.5,0.5   V31.5z M26,20.5c0,0.275-0.044,0.721-0.098,0.99l-0.9,4.77C24.949,26.529,24.68,27,24.404,27h-0.785c-0.275,0-0.545-0.471-0.6-0.74   l-0.92-4.645c-0.055-0.27-0.1-0.84-0.1-1.115v-4c0-0.275,0.225-0.5,0.5-0.5h3c0.275,0,0.5,0.225,0.5,0.5V20.5z"/>
</g>
</symbol><symbol id="exit" viewBox="10 13 26 23">
<g id="exit_2_">
	<path d="M21.616,24.293l-5.232,4.359C16.173,28.828,16,28.748,16,28.473V26h-5.5c-0.276,0-0.5-0.224-0.5-0.5v-3   c0-0.276,0.224-0.5,0.5-0.5H16v-2.473c0-0.275,0.174-0.356,0.386-0.182l5.229,4.309C21.826,23.829,21.827,24.117,21.616,24.293z    M36,14v18c0,0.127-0.028,0.246-0.072,0.358c-0.015,0.038-0.037,0.069-0.057,0.106c-0.037,0.07-0.078,0.136-0.131,0.194   c-0.03,0.035-0.063,0.063-0.098,0.093c-0.057,0.048-0.117,0.089-0.184,0.123c-0.042,0.022-0.082,0.043-0.127,0.06   c-0.024,0.008-0.044,0.024-0.069,0.031l-11,3C24.177,35.988,24.088,36,24,36c-0.217,0-0.431-0.07-0.607-0.205   C23.145,35.605,23,35.312,23,35v-2h-4c-0.553,0-1-0.447-1-1v-2.611l5-4.167v-2.498l-5-4.122V14c0-0.553,0.447-1,1-1h16   c0.039,0,0.071,0.018,0.109,0.021c0.056,0.007,0.107,0.018,0.161,0.033c0.09,0.025,0.17,0.062,0.247,0.11   c0.028,0.018,0.063,0.02,0.09,0.04c0.016,0.012,0.022,0.032,0.037,0.046c0.077,0.065,0.137,0.144,0.191,0.23   c0.021,0.035,0.05,0.064,0.067,0.101C35.962,13.71,36,13.85,36,14z M34,15.31l-9,2.454V33.69l9-2.454V15.31z"/>
</g>
</symbol><symbol id="expand" viewBox="13.51 17 20.99 14.17">
<g id="chevron-down_2_">
	<path id="chevron_x5F_down_2_" d="M24,31.17L13.507,20.677l3.672-3.672L24,23.816L30.816,17l3.676,3.676L24,31.17z"/>
</g>
</symbol><symbol id="eyedropper" viewBox="12 12.14 23.62 23.6">
<g id="eyedropper_2_">
	<path d="M34.031,18.378c1.251-1.252,2.461-2.912,0.707-4.667l-0.707-0.707c-1.775-1.774-3.514-0.446-4.667,0.707l-3.188,3.187   c-0.048,0.049-0.086,0.104-0.128,0.156l-1.553-1.554c-0.321-0.321-0.836-0.329-1.148-0.017l-1.414,1.414   c-0.311,0.312-0.305,0.827,0.017,1.149l1.115,1.114l-8.98,8.98c-0.724,0.723-1.097,1.943-0.887,2.902   c0,0.059-0.071,0.259-0.132,0.325l-0.352,0.352c-0.936,0.936-0.956,2.439-0.045,3.351c0.912,0.912,2.415,0.892,3.351-0.044   l0.354-0.354c0.064-0.059,0.266-0.13,0.356-0.126c0.926,0.205,2.147-0.168,2.87-0.891l8.981-8.98l1.114,1.114   c0.321,0.321,0.836,0.329,1.148,0.017l1.414-1.414c0.312-0.312,0.305-0.826-0.017-1.148l-1.553-1.554   c0.052-0.042,0.107-0.078,0.156-0.127L34.031,18.378z M18.61,32.667c-0.389,0.389-1.114,0.617-1.613,0.509   c-0.498-0.109-1.225,0.119-1.613,0.508l-0.353,0.354c-0.389,0.389-1.005,0.408-1.37,0.044c-0.364-0.364-0.344-0.981,0.045-1.37   l0.354-0.354c0.389-0.389,0.617-1.114,0.508-1.613c-0.109-0.498,0.119-1.224,0.508-1.612l8.981-8.98l3.536,3.535L18.61,32.667z"/>
	<path style="opacity:0.3;" d="M15.206,29l-0.132,0.132c-0.389,0.389-0.617,1.114-0.508,1.612c0.109,0.499-0.119,1.225-0.508,1.613   l-0.354,0.354c-0.389,0.389-0.409,1.006-0.045,1.37c0.365,0.364,0.981,0.345,1.37-0.044l0.353-0.354   c0.389-0.389,1.115-0.617,1.613-0.508c0.499,0.108,1.225-0.12,1.613-0.509L22.277,29H15.206z"/>
</g>
</symbol><symbol id="favourites" viewBox="17 12 15 23.64">
<g id="bookmark_2_">
	<path d="M31.5,12h-14c-0.275,0-0.5,0.225-0.5,0.5v22.875c0,0.274,0.28,0.353,0.475,0.158l7.086-6.283l6.908,6.172   C31.663,35.616,32,35.578,32,35.125V12.5C32,12.225,31.775,12,31.5,12z"/>
</g>
</symbol><symbol id="file-export" viewBox="14 12 22.08 24">
<g id="file-export_2_">
	<path d="M30,30h-7.65C22.067,30,22,29.897,22,29.616c0,0,0-2.716,0-3.111S22.125,26,22.35,26H30v-2.779   c0-0.148,0.166-0.196,0.283-0.105l5.713,4.764c0.053,0.04,0.079,0.091,0.079,0.144c0,0.066-0.031,0.135-0.097,0.186l-5.685,4.793   C30.177,33.092,30,33.045,30,32.896V30z M31.196,34.071c-0.327,0.255-0.479,0.376-0.835,0.376C29.5,34.447,29,33.752,29,32.896V31   h-6.65C21.303,31,21,30.684,21,29.616v-3.329C21,25.236,21.605,25,22.35,25c0.744,0,6.65,0,6.65,0v-1.779   c0-0.855,0.497-1.552,1.353-1.552c0.355,0,0.606,0.121,0.887,0.34l1.76,1.55V20h-7.5c-0.275,0-0.5-0.225-0.5-0.5V12H14.5   c-0.275,0-0.5,0.225-0.5,0.5v23c0,0.275,0.225,0.5,0.5,0.5h18c0.275,0,0.5-0.225,0.5-0.5v-2.949L31.196,34.071z M26.5,19H33l-7-7   v6.5C26,18.775,26.225,19,26.5,19z"/>
</g>
</symbol><symbol id="file-import" viewBox="11 12 22 24">
    <g id="file-import_2_">
        <path d="M26,18.5V12l7,7h-6.5C26.225,19,26,18.775,26,18.5z M25.5,20c-0.275,0-0.5-0.225-0.5-0.5V12H14.5             c-0.275,0-0.5,0.225-0.5,0.5V25h4v-1.779c0-0.973,0.516-1.651,1.396-1.651c0.352,0,0.589,0.108,0.913,0.358l5.711,4.799             c0.37,0.278,0.583,0.766,0.583,1.297c0,0.529-0.26,1.028-0.7,1.371l-5.521,4.755c-0.366,0.285-0.612,0.4-0.977,0.4             c-0.885,0-1.404-0.679-1.404-1.651V31h-4v4.5c0,0.275,0.225,0.5,0.5,0.5h18c0.275,0,0.5-0.225,0.5-0.5V20H25.5z M19,32.896             c0,0.148,0.177,0.195,0.294,0.104l5.685-4.793c0.065-0.051,0.097-0.119,0.097-0.186c0-0.053-0.026-0.104-0.079-0.144l-5.713-4.764             C19.166,23.024,19,23.072,19,23.221V26h-7.65C11,26,11,26.244,11,26.505c0,0.261,0,3.111,0,3.111C11,29.897,11.067,30,11.35,30H19             V32.896z">
        </path>
    </g>
</symbol><symbol id="filter" viewBox="14 12 20 24">
<g id="filter_2_">
	<path d="M14,12v1.361c0,0.55,0.45,1,1,1h18c0.55,0,1-0.45,1-1V12H14z"/>
	<path d="M22,26v10l4-4v-6l7-11H15L22,26z"/>
</g>
</symbol><symbol id="folder-open" viewBox="12 14 29.7 22">
<g id="folder-open_2_">
	<path d="M16.516,20.688C16.266,21.25,12,31.906,12,31.906V17c0-0.55,0.45-1,1-1h1.334l0.35-1.052C14.857,14.427,15.45,14,16,14h5   c0.55,0,1.143,0.427,1.316,0.948L22.666,16H32c0.55,0,1,0.45,1,1v3H17.5C17.225,20,16.766,20.125,16.516,20.688z M41,21H19   c-0.55,0-1.167,0.418-1.371,0.929l-5.258,13.143C12.167,35.582,12.45,36,13,36h22c0.55,0,1.167-0.418,1.371-0.929l5.258-13.143   C41.833,21.418,41.55,21,41,21z"/>
</g>
</symbol><symbol id="forward" viewBox="13 15 22.72 17.98">
<g id="forward_2_">
	<path d="M35.518,24.306l-10.971,8.592C24.329,33.065,24,32.978,24,32.703v-7.971v-0.022l-10.453,8.187   C13.329,33.065,13,32.978,13,32.703V15.28c0-0.275,0.329-0.362,0.547-0.194L24,23.242V23.22V15.28c0-0.275,0.329-0.362,0.547-0.194   l11.033,8.608C35.798,23.862,35.734,24.138,35.518,24.306z"/>
</g>
</symbol><symbol id="go-to" viewBox="14 15.01 18.96 18.99">
<g id="new-window-alt_2_">
        <path d="M32,26.24V30c0,2.206-1.795,4-4,4H18c-2.205,0-4-1.794-4-4V20c0-2.206,1.795-4,4-4h3.76l2,2H17c-0.55,0-1,0.45-1,1v12                 c0,0.55,0.45,1,1,1h12c0.55,0,1-0.45,1-1v-6.76L32,26.24z M32.434,15.01l-6.928-0.002c-0.315,0.031-0.411,0.176-0.187,0.398                 l2.012,2.014l-7.115,7.115c-0.226,0.225-0.225,0.59,0,0.814l2.441,2.441c0.226,0.225,0.589,0.225,0.815,0l7.115-7.115l2.012,2.012                 c0.225,0.225,0.331-0.017,0.358-0.33l-0.002-6.828C32.983,15.215,32.748,14.981,32.434,15.01z"/>
</g>
</symbol><symbol id="help" viewBox="11.3 11.1 25.4 25.4">
<rect x="22.4" y="22.3" width="3.2" height="8.2"/>
<rect x="22.4" y="17.3" width="3.2" height="3.2"/>
<path d="M24,11.1c-7,0-12.7,5.7-12.7,12.7c0,7,5.7,12.7,12.7,12.7s12.7-5.7,12.7-12.7C36.8,16.8,31.1,11.1,24,11.1z M33.6,23.9  c0,5.2-4.3,9.5-9.5,9.5c-5.2,0-9.5-4.3-9.5-9.5s4.3-9.5,9.5-9.5C29.3,14.4,33.6,18.6,33.6,23.9z"/>
</symbol><symbol id="home" viewBox="12.03 12.58 24.97 23.42">
<g id="home_2_">
	<polygon points="31,19.05 31,13 28,13 28,16.082 24.517,12.628 24.515,12.58 12.033,25 16,25 16,36 22,36 22,30 27,30 27,36 33,36    33,25 37,25  "/>
</g>
</symbol><symbol id="horizontal-flip" viewBox="12 13 24 22">
<g id="reflect-x_2_">
	<path d="M20.573,20.933c0.381,0.377,0.99,0.387,1.384,0.023l6.723-6.222c0.301-0.28,0.4-0.714,0.251-1.099   C28.781,13.252,28.411,13,28,13H15c-0.405,0-0.771,0.245-0.925,0.619C14.024,13.743,14,13.872,14,14   c0,0.262,0.103,0.519,0.296,0.71L20.573,20.933z M25.447,15l-4.146,3.837L17.43,15H25.447z M28.68,33.266   c0.301,0.279,0.401,0.716,0.251,1.099C28.781,34.748,28.411,35,28,35H15c-0.405,0-0.771-0.245-0.925-0.619   C14.024,34.257,14,34.128,14,34c0-0.262,0.103-0.519,0.296-0.71l6.277-6.222c0.381-0.377,0.99-0.387,1.384-0.023L28.68,33.266z    M35.871,29H32.25C32.112,29,32,28.888,32,28.75v-3.621c0-0.142,0.082-0.176,0.183-0.075l1.33,1.33   c0.471-0.68,0.759-1.493,0.759-2.383c0-1.922-1.28-3.541-3.03-4.075C31.109,19.885,31,19.748,31,19.609v-1.038   c0-0.138,0.109-0.231,0.244-0.202c2.589,0.569,4.527,2.871,4.527,5.63c0,1.306-0.441,2.504-1.172,3.47l1.347,1.347   C36.047,28.918,36.013,29,35.871,29z M30,24.5c0,0.276-0.224,0.5-0.5,0.5h-1c-0.276,0-0.5-0.224-0.5-0.5v-1   c0-0.276,0.224-0.5,0.5-0.5h1c0.276,0,0.5,0.224,0.5,0.5V24.5z M20.5,23h1c0.276,0,0.5,0.224,0.5,0.5v1c0,0.276-0.224,0.5-0.5,0.5   h-1c-0.276,0-0.5-0.224-0.5-0.5v-1C20,23.224,20.224,23,20.5,23z M24,24.5v-1c0-0.276,0.224-0.5,0.5-0.5h1   c0.276,0,0.5,0.224,0.5,0.5v1c0,0.276-0.224,0.5-0.5,0.5h-1C24.224,25,24,24.776,24,24.5z M13.5,25h-1c-0.276,0-0.5-0.224-0.5-0.5   v-1c0-0.276,0.224-0.5,0.5-0.5h1c0.276,0,0.5,0.224,0.5,0.5v1C14,24.776,13.776,25,13.5,25z M16,24.5v-1c0-0.276,0.224-0.5,0.5-0.5   h1c0.276,0,0.5,0.224,0.5,0.5v1c0,0.276-0.224,0.5-0.5,0.5h-1C16.224,25,16,24.776,16,24.5z"/>
</g>
</symbol><symbol id="information" viewBox="11.75 11.75 24.5 24.5">
<g id="info-sign_2_">
	<path d="M24,11.75c-6.765,0-12.25,5.484-12.25,12.25S17.235,36.25,24,36.25c6.765,0,12.25-5.484,12.25-12.25S30.765,11.75,24,11.75   z M23,17.5c0-0.275,0.225-0.5,0.5-0.5h2c0.275,0,0.5,0.225,0.5,0.5v2c0,0.275-0.225,0.5-0.5,0.5h-2c-0.275,0-0.5-0.225-0.5-0.5   V17.5z M28,30.5c0,0.275-0.225,0.5-0.5,0.5h-6c-0.275,0-0.5-0.225-0.5-0.5v-2c0-0.275,0.225-0.5,0.5-0.5H23v-4h-1.5   c-0.275,0-0.5-0.225-0.5-0.5v-2c0-0.275,0.225-0.5,0.5-0.5h4c0.275,0,0.5,0.225,0.5,0.5V28h1.5c0.275,0,0.5,0.225,0.5,0.5V30.5z"/>
</g>
</symbol><symbol id="language" viewBox="12.43 12.42 23.15 23.16">
<g id="globe-af_2_">
	<path d="M24,12.417c-4.514,0-8.713,2.715-10.567,6.831c-1.877,4.17-1.068,9.192,2.015,12.565c3.08,3.37,7.993,4.63,12.315,3.146   c4.246-1.457,7.34-5.373,7.767-9.843C36.171,18.404,30.747,12.417,24,12.417z M19.809,17.441c0.319-0.93,2.039,0.542,1.117,1.35   c-0.221,0.194-1.42,0.162-1.165-0.117c0.102-0.111,0.258-0.112,0.359-0.252C20.383,18.058,19.973,17.728,19.809,17.441z    M27.977,30.363c-0.031,0.369-0.289,1.285-0.792,1.285c-0.365,0-0.361-0.514-0.324-0.764c0.134-0.894,0.514-1.061,1-1.732   C28.197,29.437,28.008,29.989,27.977,30.363z M29.123,23.993c-0.439,0.469-1.095,1.211-1.814,1.208   c-0.489-0.002-0.536-1.513-1.126-1.793c-0.3-0.143-0.718,0.196-0.476,0.49c0.264,0.319,0.261,0.751,0.598,1.027   c0.583,0.477,1.106,1.027,1.867,0.441c-0.077,0.893-0.754,1.4-1.279,2.045c-0.295,0.363-0.531,0.77-0.436,1.255   c0.08,0.408,0.374,0.961,0.045,1.334c-0.217,0.247-0.706,0.385-0.724,0.773c0.055,0.146,0.077,0.296,0.065,0.45   c-0.103,0.215-0.327,0.357-0.442,0.577c-0.219,0.422-0.675,1.242-1.165,1.401c-0.24,0.078-0.857,0.282-1.045,0.045   c-0.499-0.628-0.325-2.09-0.617-2.824c-0.193-0.485,0.17-0.724,0.177-1.176c0.005-0.346-0.233-0.637-0.395-0.922   c-0.208-0.365-0.165-0.61-0.15-1.007c0.013-0.376-0.35-0.189-0.554-0.308c-0.229-0.133-0.254-0.431-0.579-0.227   c-0.28,0.172-1.142,0.317-1.462,0.262c-0.464-0.08-1.028-1.08-1.146-1.495c-0.109-0.389,0.187-0.762,0.078-1.088   c-0.115-0.343-0.015-0.658,0.211-0.927c0.345-0.408,0.759-1.094,1.203-1.36c0.316-0.19,0.728-0.006,1.103-0.108   c0.336-0.091,0.834-0.211,1.19-0.13c0.372,0.084-0.047,0.452,0.199,0.588c0.287,0.158,0.494,0.299,0.764,0.471   c0.278,0.176,0.381-0.319,0.582-0.368c0.243-0.059,0.576-0.094,0.823-0.044c0.479,0.101,1.458-0.229,0.978-0.94   c-0.169-0.249-0.624-0.322-0.88-0.429c-0.317-0.132-0.127-0.671-0.554-0.65c-0.319,0.079,0.118,0.412,0.01,0.598   c-0.197,0.339-0.569-0.376-0.62-0.468c-0.059-0.107-0.757-1.071-0.978-0.862c-0.075,0.071,1.173,1.492,0.225,1.215   c-0.003-0.375-0.39-0.413-0.594-0.662c-0.284-0.347-0.512-0.192-0.828,0.084c-0.309,0.271-0.758,0.647-1.131,0.826   c-0.814,0.391-0.686-0.448-0.664-0.936c0.015-0.326,0.498-0.174,0.672-0.25c0.529-0.233,0.011-0.48-0.125-0.703   c0.155-0.233,1.094-0.509,1.359-0.578c0.594-0.158,1.093-0.646,1.82-0.285c0.095,0.045,1.007-0.524,0.356-0.687   c-0.722-0.43-0.754,0.194-1.301,0.362c-0.005-0.604-1.482-0.658-0.928-1.467c0.453-0.66,0.82-0.752,2.101-0.846   c0.937-0.062,1.39-0.031,1.593,0.141s0.265,0.79-0.223,0.851c0.091,0.807,0.936,0.062,1.258-0.146   c0.532-0.341,1.657-0.131,1.808-0.253c0.151-0.122-0.101-0.469,0.032-0.688c0.125-0.207,0.441-0.102,0.483,0.109   c0.574,0.092,0.845-0.334,1.454,0.071c1.841,1.226,3.267,2.99,3.994,5.846c0.326,1.281,0.387,2.713,0.013,2.609   c-0.251-0.069-0.13-0.629-0.297-0.789c-0.433,0.101-1.163,0.822-1.352,1.221c-0.118,0.249,0.115,1.214-0.402,1.214   c-0.209,0-0.312-0.771-0.343-0.901c-0.089-0.379-0.158-0.782-0.324-1.138c-0.189-0.407-0.361-0.15-0.659-0.209   c-0.384-0.076-0.295-0.591-0.837-0.637C29.232,23.166,29.058,23.562,29.123,23.993z"/>
</g>
</symbol><symbol id="list-bordered" viewBox="13 12 22 24">
<g id="list-alt_1_">
	<path d="M31,32H21v-2h10V32z M31,18H21v2h10V18z M31,22H21v2h10V22z M19,18h-2v2h2V18z M31,26H21v2h10V26z M19,30h-2v2h2V30z    M19,22h-2v2h2V22z M19,26h-2v2h2V26z M35,13c0-0.552-0.448-1-1-1H14c-0.552,0-1,0.448-1,1v22c0,0.552,0.448,1,1,1h20   c0.552,0,1-0.448,1-1V13z M33,34H15V16h18V34z"/>
</g>
</symbol><symbol id="list-view" viewBox="12 17 24 15">
<g id="show-lines_2_">
	<path style="fill-rule:evenodd;clip-rule:evenodd;" d="M36,31.5c0,0.275-0.225,0.5-0.5,0.5h-23c-0.275,0-0.5-0.225-0.5-0.5v-2   c0-0.275,0.225-0.5,0.5-0.5h23c0.275,0,0.5,0.225,0.5,0.5V31.5z M36,23.5c0-0.275-0.225-0.5-0.5-0.5h-23   c-0.275,0-0.5,0.225-0.5,0.5v2c0,0.275,0.225,0.5,0.5,0.5h23c0.275,0,0.5-0.225,0.5-0.5V23.5z M36,17.5c0-0.275-0.225-0.5-0.5-0.5   h-23c-0.275,0-0.5,0.225-0.5,0.5v2c0,0.275,0.225,0.5,0.5,0.5h23c0.275,0,0.5-0.225,0.5-0.5V17.5z"/>
</g>
</symbol><symbol id="list" viewBox="12 14 24 21">
<g id="list_2_">
	<path style="fill-rule:evenodd;clip-rule:evenodd;" d="M36,28.5c0,0.275-0.225,0.5-0.5,0.5h-18c-0.275,0-0.5-0.225-0.5-0.5v-2   c0-0.275,0.225-0.5,0.5-0.5h18c0.275,0,0.5,0.225,0.5,0.5V28.5z M15,26.5c0-0.275-0.225-0.5-0.5-0.5h-2c-0.275,0-0.5,0.225-0.5,0.5   v2c0,0.275,0.225,0.5,0.5,0.5h2c0.275,0,0.5-0.225,0.5-0.5V26.5z M36,32.5c0-0.275-0.225-0.5-0.5-0.5h-18   c-0.275,0-0.5,0.225-0.5,0.5v2c0,0.275,0.225,0.5,0.5,0.5h18c0.275,0,0.5-0.225,0.5-0.5V32.5z M15,32.5c0-0.275-0.225-0.5-0.5-0.5   h-2c-0.275,0-0.5,0.225-0.5,0.5v2c0,0.275,0.225,0.5,0.5,0.5h2c0.275,0,0.5-0.225,0.5-0.5V32.5z M36,20.5   c0-0.275-0.225-0.5-0.5-0.5h-18c-0.275,0-0.5,0.225-0.5,0.5v2c0,0.275,0.225,0.5,0.5,0.5h18c0.275,0,0.5-0.225,0.5-0.5V20.5z    M15,20.5c0-0.275-0.225-0.5-0.5-0.5h-2c-0.275,0-0.5,0.225-0.5,0.5v2c0,0.275,0.225,0.5,0.5,0.5h2c0.275,0,0.5-0.225,0.5-0.5V20.5   z M36,14.5c0-0.275-0.225-0.5-0.5-0.5h-18c-0.275,0-0.5,0.225-0.5,0.5v2c0,0.275,0.225,0.5,0.5,0.5h18c0.275,0,0.5-0.225,0.5-0.5   V14.5z M15,14.5c0-0.275-0.225-0.5-0.5-0.5h-2c-0.275,0-0.5,0.225-0.5,0.5v2c0,0.275,0.225,0.5,0.5,0.5h2   c0.275,0,0.5-0.225,0.5-0.5V14.5z"/>
</g>
</symbol><symbol id="lock" viewBox="13 10 21 26">
<g id="lock_2_">
	<path d="M33.338,21H32v-5.002C32,12.915,29.107,10,26.053,10h-5.105C17.893,10,15,12.915,15,15.998V21h-1.338   C13.297,21,13,21.263,13,21.587v13.826C13,35.737,13.297,36,13.662,36h19.676C33.703,36,34,35.737,34,35.413V21.587   C34,21.263,33.703,21,33.338,21z M19,15.998c0-1.4,0.628-1.998,2-1.998h5c1.372,0,2,0.598,2,1.998V21h-9V15.998z M24.5,28.431V31   c0,0.275-0.225,0.5-0.5,0.5h-1c-0.275,0-0.5-0.225-0.5-0.5v-2.569c-0.596-0.347-1-0.984-1-1.723c0-1.104,0.895-1.999,2-1.999   c1.104,0,2,0.895,2,1.999C25.5,27.446,25.096,28.084,24.5,28.431z"/>
</g>
</symbol><symbol id="login" viewBox="13.5 12 21 23.5">
<g id="power_2_">
	<g>
		<path d="M26,20.999C26,21.55,25.55,22,25,22h-2c-0.55,0-1-0.45-1-1.001v-7.998C22,12.45,22.45,12,23,12h2c0.55,0,1,0.45,1,1.001    V20.999z M29.291,15.938C28.703,15.594,28,15.453,28,16.266c0,0.453,0,1.309,0,1.834c0,0.715,0.475,0.888,0.697,1.066    C30.403,20.541,31.5,22.643,31.5,25c0,4.136-3.364,7.5-7.5,7.5c-4.136,0-7.5-3.364-7.5-7.5c0-2.37,1.107-4.48,2.831-5.856    C19.545,18.973,20,18.906,20,18.091c0-0.512,0-1.255,0-1.763c0-0.844-0.609-0.828-1.373-0.342C15.56,17.821,13.5,21.173,13.5,25    c0,5.79,4.711,10.5,10.5,10.5c5.789,0,10.5-4.71,10.5-10.5C34.5,21.139,32.404,17.761,29.291,15.938z"/>
	</g>
</g>
</symbol><symbol id="mandatory" viewBox="14 14 20 20">
<g id="asterisk_3_">
	<path d="M33.5,22h-4.653l3.016-3.016c0.196-0.197,0.196-0.52,0-0.716l-2.118-2.118c-0.196-0.196-0.519-0.196-0.716,0L26,19.179   V14.5c0-0.275-0.225-0.5-0.5-0.5h-3c-0.275,0-0.5,0.225-0.5,0.5v4.665l-3.019-3.018c-0.197-0.196-0.519-0.196-0.716,0l-2.118,2.119   c-0.197,0.195-0.197,0.518,0,0.716L19.165,22H14.5c-0.275,0-0.5,0.225-0.5,0.5v3c0,0.275,0.225,0.5,0.5,0.5h4.679l-3.029,3.029   c-0.195,0.195-0.195,0.519,0,0.716l2.118,2.118c0.197,0.195,0.52,0.195,0.716,0L22,28.847V33.5c0,0.275,0.225,0.5,0.5,0.5h3   c0.275,0,0.5-0.225,0.5-0.5v-4.665l3.025,3.025c0.196,0.196,0.519,0.196,0.716,0l2.119-2.119c0.195-0.195,0.195-0.518,0-0.716   L28.835,26H33.5c0.275,0,0.5-0.225,0.5-0.5v-3C34,22.225,33.775,22,33.5,22z"/>
</g>
</symbol><symbol id="map-marker" viewBox="15.99 12 17.95 24.33">
<g id="map-marker_2_">
	<path id="map-marker_4_" d="M33.943,21.17c0,1.761-0.367,3.677-1.454,5.401c-3.276,5.087-7.422,9.756-7.422,9.756   s-4.767-4.505-7.812-9.848c-0.763-1.667-1.262-3.432-1.262-5.199c0-4.967,4.017-9.281,8.975-9.281   C29.926,12,33.943,16.204,33.943,21.17z M30.415,20.807c0-2.967-2.403-5.367-5.366-5.367c-2.963,0-5.366,2.399-5.366,5.367   c0,2.965,2.403,5.365,5.366,5.365C28.012,26.172,30.415,23.772,30.415,20.807z"/>
</g>
</symbol><symbol id="menu-hamburger" viewBox="13 15 22 18">
<g id="menu-hamburger_2_">
	<path d="M13,18.5c0,0.275,0.225,0.5,0.5,0.5h21c0.275,0,0.5-0.225,0.5-0.5v-3c0-0.275-0.225-0.5-0.5-0.5h-21   c-0.275,0-0.5,0.225-0.5,0.5V18.5z M13,25.5c0,0.275,0.225,0.5,0.5,0.5h21c0.275,0,0.5-0.225,0.5-0.5v-3c0-0.275-0.225-0.5-0.5-0.5   h-21c-0.275,0-0.5,0.225-0.5,0.5V25.5z M13,32.5c0,0.275,0.225,0.5,0.5,0.5h21c0.275,0,0.5-0.225,0.5-0.5v-3   c0-0.275-0.225-0.5-0.5-0.5h-21c-0.275,0-0.5,0.225-0.5,0.5V32.5z"/>
</g>
</symbol><symbol id="minus-sign" viewBox="11.75 11.75 24.5 24.5">
<g id="minus-sign_2_">
	<path d="M24,11.75c-6.765,0-12.25,5.484-12.25,12.25S17.235,36.25,24,36.25S36.25,30.766,36.25,24S30.765,11.75,24,11.75z M30,25.5   c0,0.276-0.224,0.5-0.5,0.5h-11c-0.276,0-0.5-0.224-0.5-0.5v-3c0-0.276,0.224-0.5,0.5-0.5h11c0.276,0,0.5,0.224,0.5,0.5V25.5z"/>
</g>
</symbol><symbol id="minus" viewBox="0 0 83 83">
<g>
	<path d="M81,36.166H2c-1.104,0-2,0.896-2,2v6.668c0,1.104,0.896,2,2,2h79c1.104,0,2-0.896,2-2v-6.668
		C83,37.062,82.104,36.166,81,36.166z"/>
</g>
</symbol><symbol id="modules" viewBox="13 13 22 22">
<g id="show-thumbnails_2_">
	<path style="fill-rule:evenodd;clip-rule:evenodd;" d="M29.5,35c-0.275,0-0.5-0.225-0.5-0.5v-5c0-0.275,0.225-0.5,0.5-0.5h5   c0.275,0,0.5,0.225,0.5,0.5v5c0,0.275-0.225,0.5-0.5,0.5H29.5z M21.5,35c-0.275,0-0.5-0.225-0.5-0.5v-5c0-0.275,0.225-0.5,0.5-0.5   h5c0.275,0,0.5,0.225,0.5,0.5v5c0,0.275-0.225,0.5-0.5,0.5H21.5z M13.5,35c-0.275,0-0.5-0.225-0.5-0.5v-5   c0-0.275,0.225-0.5,0.5-0.5h5c0.275,0,0.5,0.225,0.5,0.5v5c0,0.275-0.225,0.5-0.5,0.5H13.5z M29.5,27c-0.275,0-0.5-0.225-0.5-0.5   v-5c0-0.275,0.225-0.5,0.5-0.5h5c0.275,0,0.5,0.225,0.5,0.5v5c0,0.275-0.225,0.5-0.5,0.5H29.5z M21.5,27   c-0.275,0-0.5-0.225-0.5-0.5v-5c0-0.275,0.225-0.5,0.5-0.5h5c0.275,0,0.5,0.225,0.5,0.5v5c0,0.275-0.225,0.5-0.5,0.5H21.5z    M13.5,27c-0.275,0-0.5-0.225-0.5-0.5v-5c0-0.275,0.225-0.5,0.5-0.5h5c0.275,0,0.5,0.225,0.5,0.5v5c0,0.275-0.225,0.5-0.5,0.5H13.5   z M29.5,19c-0.275,0-0.5-0.225-0.5-0.5v-5c0-0.275,0.225-0.5,0.5-0.5h5c0.275,0,0.5,0.225,0.5,0.5v5c0,0.275-0.225,0.5-0.5,0.5   H29.5z M21.5,19c-0.275,0-0.5-0.225-0.5-0.5v-5c0-0.275,0.225-0.5,0.5-0.5h5c0.275,0,0.5,0.225,0.5,0.5v5   c0,0.275-0.225,0.5-0.5,0.5H21.5z M13.5,19c-0.275,0-0.5-0.225-0.5-0.5v-5c0-0.275,0.225-0.5,0.5-0.5h5c0.275,0,0.5,0.225,0.5,0.5   v5c0,0.275-0.225,0.5-0.5,0.5H13.5z"/>
</g>
</symbol><symbol id="more-items" viewBox="14.23 21.23 19.53 5.53">
<g id="option-horizontal_2_">
	<path d="M17,21.234c1.527,0,2.766,1.238,2.766,2.766S18.527,26.766,17,26.766S14.234,25.527,14.234,24S15.473,21.234,17,21.234z    M21.234,24c0,1.527,1.238,2.766,2.766,2.766s2.766-1.238,2.766-2.766S25.527,21.234,24,21.234S21.234,22.473,21.234,24z    M28.234,24c0,1.527,1.238,2.766,2.766,2.766s2.766-1.238,2.766-2.766S32.527,21.234,31,21.234S28.234,22.473,28.234,24z"/>
</g>
</symbol><symbol id="move-img-down" viewBox="11.75 11.75 24.38 24.38">
<g id="circle-arrow-down_2_">
	<path d="M11.75,23.938c0,6.73,5.456,12.188,12.187,12.188s12.188-5.457,12.188-12.188S30.669,11.75,23.937,11.75   S11.75,17.207,11.75,23.938z M25.5,18c0.275,0,0.5,0.225,0.5,0.5V24h3.5c0.275,0,0.353,0.171,0.175,0.38l-5.35,6.24   c-0.179,0.209-0.472,0.21-0.651,0.001l-5.38-6.242C18.114,24.17,18.192,24,18.468,24H22v-5.5c0-0.275,0.225-0.5,0.5-0.5H25.5z"/>
</g>
</symbol><symbol id="move-img-left" viewBox="11.75 11.75 24.38 24.38">
<g id="circle-arrow-left_2_">
	<path d="M23.937,11.75c-6.73,0-12.187,5.456-12.187,12.188s5.457,12.188,12.187,12.188c6.731,0,12.188-5.456,12.188-12.188   S30.668,11.75,23.937,11.75z M30,25.5c0,0.275-0.225,0.5-0.5,0.5H24v3.407c0,0.275-0.173,0.357-0.384,0.18l-6.398-5.329   c-0.212-0.176-0.212-0.465,0-0.641l6.398-5.329C23.827,18.111,24,18.192,24,18.468V22h5.5c0.275,0,0.5,0.225,0.5,0.5V25.5z"/>
</g>
</symbol><symbol id="move-img-right" viewBox="11.75 11.75 24.38 24.38">
<g id="circle-arrow-right_2_">
	<path d="M11.75,23.938c0,6.731,5.457,12.188,12.187,12.188c6.731,0,12.188-5.456,12.188-12.188S30.668,11.75,23.937,11.75   C17.207,11.75,11.75,17.206,11.75,23.938z M18,22.5c0-0.275,0.225-0.5,0.5-0.5H24v-3.532c0-0.275,0.173-0.357,0.384-0.18   l6.398,5.329c0.211,0.176,0.211,0.465,0,0.641l-6.398,5.329C24.173,29.764,24,29.683,24,29.407V26h-5.5c-0.275,0-0.5-0.225-0.5-0.5   V22.5z"/>
</g>
</symbol><symbol id="move-img-up" viewBox="12.75 11.75 24.38 24.38">
<g id="circle-arrow-top_2_">
	<path d="M24.937,36.125c6.731,0,12.188-5.457,12.188-12.188S31.669,11.75,24.937,11.75S12.75,17.207,12.75,23.938   S18.206,36.125,24.937,36.125z M23.5,30c-0.275,0-0.5-0.225-0.5-0.5V24h-3.532c-0.275,0-0.354-0.17-0.174-0.379l5.38-6.242   c0.18-0.209,0.473-0.208,0.651,0.001l5.35,6.24C30.853,23.829,30.775,24,30.5,24H27v5.5c0,0.275-0.225,0.5-0.5,0.5H23.5z"/>
</g>
</symbol><symbol id="new-menu" viewBox="11.9 11.4 25.2 24.5">
<g>
	<path d="M15.4,32.9v-1.5l0-15.7h-2.9c-0.3,0-0.6,0.2-0.6,0.5v19.2c0,0.3,0.3,0.5,0.6,0.5h18.7c0.3,0,0.6-0.2,0.6-0.5v-2.5H16H15.4z   "/>
	<path d="M36.5,11.4H17.8c-0.3,0-0.6,0.2-0.6,0.5v19.3h19.3c0.3,0,0.6-0.2,0.6-0.5V11.9C37.1,11.6,36.8,11.4,36.5,11.4z M33.8,22.2   c0,0.2-0.2,0.4-0.4,0.4h-3.9v3.9c0,0.2-0.2,0.4-0.4,0.4h-2.6c-0.2,0-0.4-0.2-0.4-0.4v-3.9h-3.9c-0.2,0-0.4-0.2-0.4-0.4v-2.6   c0-0.2,0.2-0.4,0.4-0.4H26v-3.9c0-0.2,0.2-0.4,0.4-0.4H29c0.2,0,0.4,0.2,0.4,0.4v3.9h3.9c0.2,0,0.4,0.2,0.4,0.4V22.2z"/>
</g>
</symbol><symbol id="new-report" viewBox="14 10 27 26">
<g id="file-plus_2_">
	<path d="M36,10c-2.761,0-5,2.238-5,5s2.239,5,5,5c2.761,0,5-2.238,5-5S38.761,10,36,10z M39,15.5c0,0.275-0.225,0.5-0.5,0.5H37v1.5   c0,0.275-0.225,0.5-0.5,0.5h-1c-0.275,0-0.5-0.225-0.5-0.5V16h-1.5c-0.275,0-0.5-0.225-0.5-0.5v-1c0-0.275,0.225-0.5,0.5-0.5H35   v-1.5c0-0.275,0.225-0.5,0.5-0.5h1c0.275,0,0.5,0.225,0.5,0.5V14h1.5c0.275,0,0.5,0.225,0.5,0.5V15.5z M26,18.5V12l2.715,2.715   C28.711,14.81,28.7,14.904,28.7,15c0,1.477,0.444,2.85,1.201,4H26.5C26.225,19,26,18.775,26,18.5z M30.696,20   c0.65,0.689,1.431,1.251,2.304,1.647V35.5c0,0.275-0.225,0.5-0.5,0.5h-18c-0.275,0-0.5-0.225-0.5-0.5v-23   c0-0.275,0.225-0.5,0.5-0.5H25v7.5c0,0.275,0.225,0.5,0.5,0.5H30.696z"/>
</g>
</symbol><symbol id="new-suggestion" viewBox="15 12.13 23.87 20.87">
<g id="edit_2_">
	<path d="M31,25.656V30c0,0.55-0.45,1-1,1H18c-0.55,0-1-0.45-1-1V18c0-0.55,0.45-1,1-1h10.344l1.809-1.811   C29.785,15.078,29.404,15,29,15H19c-2.205,0-4,1.794-4,4v10c0,2.206,1.795,4,4,4h10c2.205,0,4-1.794,4-4v-5.343L31,25.656z"/>
	<path d="M38.717,14.451l-2.168-2.169c-0.199-0.198-0.524-0.198-0.725,0l-1.445,1.446l2.893,2.893l1.445-1.445   C38.916,14.976,38.916,14.65,38.717,14.451z"/>
	<path d="M26.333,27.459l-2.792-2.833l-1.632,4.172c-0.101,0.263,0.03,0.394,0.294,0.293L26.333,27.459z"/>
	<rect x="28.357" y="14.163" transform="matrix(0.7071 0.7071 -0.7071 0.7071 23.47 -15.4649)" width="4.091" height="12.869"/>
</g>
</symbol><symbol id="notifications" viewBox="12.79 12 22.42 23.83">
<g id="bell_1_">
	<path d="M21.356,33.995c0.403,1.071,1.431,1.838,2.644,1.838c1.213,0,2.238-0.767,2.643-1.837C25.807,34.06,24.926,34.1,24,34.1   C23.073,34.1,22.193,34.059,21.356,33.995z"/>
	<path d="M34.209,29h-0.375l-2.5-3L30,19h-0.013c-0.406-2.45-2.28-4.393-4.687-4.921c0.004-0.01,0.013-0.019,0.016-0.028   l0.367-1.102C25.857,12.427,25.55,12,25,12h-2c-0.55,0-0.857,0.427-0.684,0.949l0.367,1.102c0.003,0.01,0.012,0.018,0.016,0.028   c-2.406,0.528-4.28,2.471-4.686,4.921H18l-1.334,7l-2.5,3h-0.375c-0.55,0-1,0.45-1,1s0.42,1.161,0.934,1.358   C13.725,31.358,18,33,24,33s10.275-1.642,10.275-1.642c0.514-0.197,0.934-0.809,0.934-1.358S34.759,29,34.209,29z"/>
</g>
</symbol><symbol id="ok" viewBox="11.82 14.9 23.33 18.69">
<g id="ok_2_">
	<path d="M35.008,18.27c0.196,0.193,0.197,0.51,0.003,0.705L20.536,33.448c-0.194,0.194-0.513,0.194-0.707,0l-3.245-3.246   c-0.195-0.194-0.514-0.513-0.707-0.707l-3.906-3.907c-0.195-0.193-0.195-0.512,0-0.707l3.246-3.246   c0.194-0.194,0.513-0.194,0.707,0l3.906,3.906c0.195,0.194,0.514,0.194,0.707,0L31.03,15.049c0.194-0.194,0.514-0.195,0.71-0.002   L35.008,18.27z"/>
</g>
</symbol><symbol id="open-report" viewBox="12 14 29.7 22">
<g id="folder-open_2_">
	<path d="M16.516,20.688C16.266,21.25,12,31.906,12,31.906V17c0-0.55,0.45-1,1-1h1.334l0.35-1.052C14.857,14.427,15.45,14,16,14h5   c0.55,0,1.143,0.427,1.316,0.948L22.666,16H32c0.55,0,1,0.45,1,1v3H17.5C17.225,20,16.766,20.125,16.516,20.688z M41,21H19   c-0.55,0-1.167,0.418-1.371,0.929l-5.258,13.143C12.167,35.582,12.45,36,13,36h22c0.55,0,1.167-0.418,1.371-0.929l5.258-13.143   C41.833,21.418,41.55,21,41,21z"/>
</g>
</symbol><symbol id="option-horizontal" viewBox="14.23 21.23 19.53 5.53">
<g id="option-horizontal_2_">
	<path d="M17,21.234c1.527,0,2.766,1.238,2.766,2.766S18.527,26.766,17,26.766S14.234,25.527,14.234,24S15.473,21.234,17,21.234z    M21.234,24c0,1.527,1.238,2.766,2.766,2.766s2.766-1.238,2.766-2.766S25.527,21.234,24,21.234S21.234,22.473,21.234,24z    M28.234,24c0,1.527,1.238,2.766,2.766,2.766s2.766-1.238,2.766-2.766S32.527,21.234,31,21.234S28.234,22.473,28.234,24z"/>
</g>
</symbol><symbol id="page-first" viewBox="5 6 13.41 12"><path d="M18.41,7.41L17,6L11,12L17,18L18.41,16.59L13.83,12L18.41,7.41M12.41,7.41L11,6L5,12L11,18L12.41,16.59L7.83,12L12.41,7.41Z"/></symbol><symbol id="page-last" viewBox="5.59 6 13.41 12"><path d="M5.59,7.41L7,6L13,12L7,18L5.59,16.59L10.17,12L5.59,7.41M11.59,7.41L13,6L19,12L13,18L11.59,16.59L16.17,12L11.59,7.41Z"/></symbol><symbol id="page-next" viewBox="8.59 6 7.41 12"><path d="M8.59,16.58L13.17,12L8.59,7.41L10,6L16,12L10,18L8.59,16.58Z"/></symbol><symbol id="page-previous" viewBox="8 6 7.41 12"><path d="M15.41,16.58L10.83,12L15.41,7.41L14,6L8,12L14,18L15.41,16.58Z"/></symbol><symbol id="paired" viewBox="12.2 15.2 23.6 17.6">
<g id="paired_2_">
	<path d="M35.8,25.5v2c0,2.923-2.377,5.3-5.3,5.3h-6c-2.922,0-5.3-2.377-5.3-5.3v-2c0-2.923,2.377-5.3,5.3-5.3h0.367   c0.022,0.096,0.033,0.197,0.033,0.3v2c0,0.103-0.012,0.203-0.033,0.3H24.5c-1.489,0-2.7,1.211-2.7,2.7v2c0,1.489,1.211,2.7,2.7,2.7   h6c1.489,0,2.7-1.211,2.7-2.7v-2c0-1.489-1.211-2.7-2.7-2.7h-0.414c0.005-0.1,0.014-0.199,0.014-0.3v-2   c0-0.101-0.009-0.2-0.014-0.3H30.5C33.422,20.2,35.8,22.577,35.8,25.5z M23.5,15.2h-6c-2.922,0-5.3,2.377-5.3,5.3v2   c0,2.923,2.377,5.3,5.3,5.3h0.416c-0.005-0.1-0.015-0.199-0.015-0.3v-2c0-0.101,0.011-0.2,0.015-0.3H17.5   c-1.489,0-2.7-1.211-2.7-2.7v-2c0-1.489,1.211-2.7,2.7-2.7h6c1.489,0,2.7,1.211,2.7,2.7v2c0,1.489-1.211,2.7-2.7,2.7h-0.366   c-0.021,0.097-0.034,0.197-0.034,0.3v2c0,0.103,0.013,0.203,0.034,0.3H23.5c2.922,0,5.3-2.377,5.3-5.3v-2   C28.8,17.577,26.422,15.2,23.5,15.2z"/>
</g>
</symbol><symbol id="password-hidden" viewBox="9.39 12 29.74 24">
<g id="eye-close_2_">
	<path d="M30.136,21.802c0.063,0.342,0.104,0.691,0.104,1.053c0,1.951-0.937,3.681-2.383,4.773l-1.544,3.949   c6.945-1.102,12.814-7.284,12.814-7.284s-2.456-4.301-7.258-6.923L30.136,21.802z M29.909,28.562   c1.469-1.455,2.381-3.474,2.381-5.707c0-0.517-0.054-1.021-0.146-1.511c2.108,1.006,3.771,2.176,4.615,2.949   C35.635,25.325,33.068,27.289,29.909,28.562z"/>
	<path d="M30.051,12l-1.621,4.044c-1.279-0.353-2.665-0.614-4.171-0.614c-9.844,0-14.868,8.884-14.868,8.884   s5.924,6.306,12.911,7.364L20.637,36h2.515l9.386-24H30.051z M23.39,24.657l-0.734,0.734c-0.538-0.342-0.941-0.859-1.178-1.459   l0.814-0.812C22.383,23.796,22.797,24.37,23.39,24.657z M12.195,24.291c0.809-0.743,2.275-1.851,4.161-2.83   c-0.08,0.453-0.129,0.917-0.129,1.394c0,2.181,0.871,4.154,2.28,5.602C15.59,27.183,13.292,25.296,12.195,24.291z M23.404,28.768   c-2.898-0.415-5.127-2.9-5.127-5.913c0-0.881,0.195-1.714,0.537-2.466c0.998-0.36,2.059-0.656,3.175-0.832   c-1.048,0.723-1.737,1.93-1.737,3.298c0,2.177,1.74,3.942,3.903,3.998L23.404,28.768z"/>
</g>
</symbol><symbol id="password" viewBox="13 10 21 26">
<g id="lock_2_">
	<path d="M33.338,21H32v-5.002C32,12.915,29.107,10,26.053,10h-5.105C17.893,10,15,12.915,15,15.998V21h-1.338   C13.297,21,13,21.263,13,21.587v13.826C13,35.737,13.297,36,13.662,36h19.676C33.703,36,34,35.737,34,35.413V21.587   C34,21.263,33.703,21,33.338,21z M19,15.998c0-1.4,0.628-1.998,2-1.998h5c1.372,0,2,0.598,2,1.998V21h-9V15.998z M24.5,28.431V31   c0,0.275-0.225,0.5-0.5,0.5h-1c-0.275,0-0.5-0.225-0.5-0.5v-2.569c-0.596-0.347-1-0.984-1-1.723c0-1.104,0.895-1.999,2-1.999   c1.104,0,2,0.895,2,1.999C25.5,27.446,25.096,28.084,24.5,28.431z"/>
</g>
</symbol><symbol id="paste" viewBox="12 12 24 24">
<g id="paste_2_">
	<path d="M15,16.015v-0.982C15,14.481,15.471,14,16.021,14H17v-0.912C17,12.536,17.45,12,18,12h2c0.55,0,1,0.536,1,1.088V14h0.979   C22.529,14,23,14.481,23,15.033v0.982C23,16.567,22.529,17,21.979,17h-5.957C15.471,17,15,16.567,15,16.015z M25.5,15H24v2.019   C24,17.57,23.55,18,23,18h-8c-0.55,0-1-0.43-1-0.981V15h-1.5c-0.275,0-0.5,0.237-0.5,0.513v15.06C12,30.849,12.225,31,12.5,31h7.3   v-2.8h-3v-4.4h3v-3.79l3.2,3.2V21c0-0.55,0.45-1,1-1h2v-4.487C26,15.237,25.775,15,25.5,15z M20.792,31H23v-2.208L20.792,31z    M32.5,25H36l-4-4v3.5C32,24.775,32.225,25,32.5,25z M31.5,26H36v9.5c0,0.275-0.225,0.5-0.5,0.5h-11c-0.275,0-0.5-0.225-0.5-0.5   v-7.708l1.792-1.792L24,24.209V21.5c0-0.275,0.225-0.5,0.5-0.5H31v4.5C31,25.775,31.225,26,31.5,26z M23.611,26.001L21,23.389V25   h-3v2h3v1.612L23.611,26.001z"/>
</g>
</symbol><symbol id="pencil" viewBox="11.98 11.98 24.04 24.04">
<g id="pencil_2_">
	<path d="M29.687,14.232l0.51,0.511l3.06,3.06l0.511,0.51l0.51-0.51l1.021-1.019l0.509-0.512c0.281-0.279,0.282-0.738,0-1.02   l-3.059-3.059c-0.282-0.282-0.741-0.281-1.021-0.001l-0.511,0.51l-1.019,1.021L29.687,14.232z"/>
	<rect x="14.996" y="21.04" transform="matrix(0.7071 -0.7071 0.7071 0.7071 -9.8662 24.0313)" width="18.158" height="5.771"/>
	<path d="M14.379,29.54l-2.364,6.152c-0.101,0.262,0.03,0.393,0.292,0.292l6.152-2.363L14.379,29.54z"/>
</g>
</symbol><symbol id="play-button" viewBox="11.75 11.75 24.5 24.5">
<g id="play-button_2_">
	<path d="M24,36.25c-6.755,0-12.25-5.495-12.25-12.25S17.245,11.75,24,11.75S36.25,17.245,36.25,24S30.755,36.25,24,36.25z M24,15   c-4.963,0-9,4.037-9,9s4.037,9,9,9s9-4.037,9-9S28.963,15,24,15z M28.94,24.172l-7.728,4.545C21.103,28.81,21,28.762,21,28.607   v-9.215c0-0.154,0.102-0.203,0.21-0.109l7.735,4.545C29.054,23.922,29.048,24.078,28.94,24.172z"/>
</g>
</symbol><symbol id="play" viewBox="17 15.54 16.02 16.92">
<g id="play_1_">
	<path d="M32.854,24.306l-15.433,8.069C17.205,32.543,17,32.455,17,32.181V15.819c0-0.275,0.203-0.362,0.42-0.194l15.446,8.069   C33.084,23.862,33.072,24.138,32.854,24.306z"/>
</g>
</symbol><symbol id="plus-sign" viewBox="11.75 11.75 24.5 24.5">
<g id="plus-sign_2_">
	<path d="M24,11.75c-6.765,0-12.25,5.483-12.25,12.25S17.235,36.25,24,36.25S36.25,30.767,36.25,24S30.765,11.75,24,11.75z    M31.086,25.519c0,0.278-0.227,0.506-0.506,0.506h-4.555v4.618c0,0.279-0.227,0.507-0.506,0.507h-3.037   c-0.279,0-0.506-0.228-0.506-0.507v-4.618H17.42c-0.279,0-0.506-0.228-0.506-0.506v-3.037c0-0.278,0.227-0.506,0.506-0.506h4.555   v-4.555c0-0.279,0.228-0.507,0.506-0.507h3.037c0.279,0,0.506,0.227,0.506,0.507v4.555h4.555c0.279,0,0.506,0.228,0.506,0.506   V25.519z"/>
</g>
</symbol><symbol id="plus" viewBox="14 15 20 20">
<g id="plus_4_">
	<path id="plus_5_" d="M34,23.499v2.961c0,0.275-0.246,0.54-0.522,0.54H26v7.459C26,34.734,25.76,35,25.484,35h-2.961   C22.248,35,22,34.734,22,34.459V27h-7.5c-0.275,0-0.5-0.265-0.5-0.54v-2.961C14,23.224,14.225,23,14.5,23H22v-7.5   c0-0.275,0.248-0.5,0.523-0.5h2.961C25.76,15,26,15.225,26,15.5V23h7.478C33.754,23,34,23.224,34,23.499z"/>
</g>
</symbol><symbol id="project" viewBox="0 0 22 22">
<path d="M19.5,1.8h-17c-1.2,0-2.3,0.8-2.3,1.8v14.7c0,1,1,1.8,2.3,1.8h17c1.2,0,2.3-0.8,2.3-1.8V3.7C21.8,2.6,20.8,1.8,19.5,1.8z
	 M16.4,2.9c0.5,0,0.8,0.4,0.8,0.8c0,0.5-0.4,0.8-0.8,0.8c-0.5,0-0.8-0.4-0.8-0.8C15.5,3.3,15.9,2.9,16.4,2.9z M13.8,2.9
	c0.5,0,0.8,0.4,0.8,0.8c0,0.5-0.4,0.8-0.8,0.8c-0.5,0-0.8-0.4-0.8-0.8C12.9,3.3,13.3,2.9,13.8,2.9z M19.5,18.3h-17V5.5h17V18.3z
	 M18.8,4.6c-0.5,0-0.8-0.4-0.8-0.8c0-0.5,0.4-0.8,0.8-0.8c0.5,0,0.8,0.4,0.8,0.8C19.7,4.2,19.3,4.6,18.8,4.6z"/>
</symbol><symbol id="properties" viewBox="13 12 22 24">
<g id="list-alt_1_">
	<path d="M31,32H21v-2h10V32z M31,18H21v2h10V18z M31,22H21v2h10V22z M19,18h-2v2h2V18z M31,26H21v2h10V26z M19,30h-2v2h2V30z    M19,22h-2v2h2V22z M19,26h-2v2h2V26z M35,13c0-0.552-0.448-1-1-1H14c-0.552,0-1,0.448-1,1v22c0,0.552,0.448,1,1,1h20   c0.552,0,1-0.448,1-1V13z M33,34H15V16h18V34z"/>
</g>
</symbol><symbol id="pushpin" viewBox="12.1 11.98 22.92 22.92">
<g id="pushpin_2_">
	<path d="M34.727,17.929l-5.657-5.657c-0.39-0.39-1.023-0.391-1.414,0c-0.391,0.392-0.391,1.024,0,1.415l0.707,0.707l-4.949,4.95   c-1.562-1.562-4.242-1.415-6.363,0.707l4.242,4.242l-8.485,8.485l-0.707,2.121l2.121-0.707l8.485-8.485l4.242,4.242   c2.122-2.121,2.27-4.802,0.707-6.363l4.95-4.949l0.707,0.707c0.391,0.39,1.023,0.391,1.415,0   C35.119,18.952,35.118,18.319,34.727,17.929z"/>
</g>
</symbol><symbol id="remove-circle" viewBox="11.75 11.75 24.5 24.5">
<g id="remove-circle_2_">
	<path d="M24,11.75c-6.755,0-12.25,5.495-12.25,12.25S17.245,36.25,24,36.25c6.755,0,12.25-5.495,12.25-12.25S30.755,11.75,24,11.75   z M24,33c-4.963,0-9-4.037-9-9s4.037-9,9-9c4.963,0,9,4.037,9,9S28.963,33,24,33z M29.646,21.16l-2.843,2.843l2.839,2.839   c0.195,0.195,0.195,0.514,0,0.707l-2.094,2.094c-0.193,0.195-0.512,0.195-0.707,0l-2.839-2.839l-2.843,2.843   c-0.193,0.193-0.512,0.193-0.707,0l-2.094-2.094c-0.193-0.195-0.193-0.514,0-0.707l2.843-2.843l-2.845-2.845   c-0.195-0.195-0.195-0.514,0-0.707l2.094-2.094c0.193-0.195,0.512-0.195,0.707,0l2.845,2.845l2.843-2.843   c0.193-0.193,0.512-0.193,0.707,0l2.094,2.094C29.84,20.648,29.84,20.967,29.646,21.16z"/>
</g>
</symbol><symbol id="remove-sign" viewBox="11.75 11.75 24.5 24.5">
<g id="remove-sign_2_">
        <path d="M32.662,15.338c-4.784-4.784-12.54-4.784-17.324,0s-4.784,12.54,0,17.324s12.54,4.784,17.324,0                 C37.445,27.878,37.446,20.122,32.662,15.338z M27.535,29.656c-0.194,0.195-0.513,0.195-0.707,0L24,26.828l-2.828,2.828                 c-0.194,0.195-0.513,0.195-0.707,0l-2.121-2.121c-0.195-0.193-0.195-0.512,0-0.707L21.172,24l-2.828-2.828                 c-0.195-0.195-0.195-0.514,0-0.707l2.121-2.121c0.194-0.195,0.512-0.195,0.707,0L24,21.172l2.828-2.828                 c0.195-0.195,0.513-0.195,0.707,0l2.121,2.121c0.195,0.193,0.195,0.512,0,0.707L26.828,24l2.828,2.828                 c0.195,0.195,0.195,0.514,0,0.707L27.535,29.656z"/>
</g>
</symbol><symbol id="remove" viewBox="15 14.99 18.01 18.01">
<g id="remove_2_">
	<path d="M27.195,23.996l5.648-5.648c0.221-0.222,0.221-0.585,0-0.806l-2.383-2.383c-0.221-0.221-0.583-0.221-0.805,0l-5.649,5.649   l-5.653-5.652c-0.222-0.221-0.584-0.221-0.805,0l-2.383,2.384c-0.222,0.22-0.222,0.582,0,0.806l5.652,5.651l-5.65,5.65   c-0.22,0.22-0.22,0.583,0,0.805l2.383,2.383c0.222,0.22,0.586,0.22,0.806,0l5.649-5.649l5.646,5.647   c0.221,0.221,0.585,0.221,0.806,0l2.384-2.384c0.22-0.22,0.22-0.583,0-0.806L27.195,23.996z"/>
</g>
</symbol><symbol id="reorder" viewBox="12.21 12.21 23.58 23.58">
<g id="move_2_">
	<path d="M35.646,23.646l-4.293-4.293C31.159,19.159,31,19.225,31,19.5V22h-5v-5l2.484-0.013c0.275-0.002,0.341-0.162,0.146-0.356   l-4.277-4.277c-0.194-0.194-0.513-0.194-0.707,0l-4.293,4.293C19.159,16.841,19.225,17,19.5,17H22v5h-5v-2.5   c0-0.275-0.159-0.341-0.354-0.146l-4.293,4.293c-0.194,0.194-0.194,0.513,0,0.707l4.293,4.293C16.841,28.841,17,28.775,17,28.5V26   h5v5h-2.5c-0.275,0-0.341,0.159-0.147,0.354l4.293,4.293c0.194,0.194,0.513,0.194,0.707,0l4.293-4.293   C28.841,31.159,28.775,31,28.5,31H26v-5h5v2.5c0,0.275,0.159,0.341,0.353,0.146l4.293-4.293   C35.841,24.159,35.841,23.841,35.646,23.646z"/>
</g>
</symbol><symbol id="reset-definitions" viewBox="11.8 11.66 24.24 24.78">
<g id="cogwheel_2_">
	<path d="M29.1,24.7c0-0.2,0-0.4,0-0.7c0-0.2,0-0.5,0-0.7L27.7,23c-0.1-0.3-0.2-0.7-0.4-0.9l0.7-1.2c-0.3-0.4-0.6-0.7-0.9-0.9   l-1.2,0.7c-0.3-0.2-0.6-0.3-0.9-0.4l-0.3-1.4c-0.2,0-0.4,0-0.7,0c-0.2,0-0.5,0-0.7,0l-0.3,1.4c-0.3,0.1-0.7,0.2-0.9,0.4l-1.2-0.7   c-0.4,0.3-0.7,0.6-0.9,0.9l0.7,1.2c-0.2,0.3-0.3,0.6-0.4,0.9l-1.4,0.3c0,0.2,0,0.4,0,0.7c0,0.2,0,0.5,0,0.7l1.4,0.3   c0.1,0.3,0.2,0.7,0.4,0.9l-0.7,1.2c0.3,0.4,0.6,0.7,0.9,0.9l1.2-0.7c0.3,0.2,0.6,0.3,0.9,0.4l0.3,1.4c0.2,0,0.4,0,0.7,0   c0.2,0,0.5,0,0.7,0l0.3-1.4c0.3-0.1,0.7-0.2,0.9-0.4l1.2,0.7c0.4-0.3,0.7-0.6,0.9-0.9l-0.7-1.2c0.2-0.3,0.3-0.6,0.4-0.9L29.1,24.7z    M23.9,25.8c-1,0-1.8-0.8-1.8-1.8c0-1,0.8-1.8,1.8-1.8c1,0,1.8,0.8,1.8,1.8C25.7,25,24.9,25.8,23.9,25.8z"/>
</g>
<g id="refresh_00000057112130329473945510000005260679051707234480_">
	<path d="M15.1,26.9L12.2,27c-0.9-3.4-0.3-7.1,1.9-10.1c3.8-5.2,11-6.6,16.4-3l0.1,0l1.5-2.1c0.2-0.2,0.4-0.2,0.4,0.1l1.9,6.3   c0.1,0.3-0.1,0.5-0.4,0.5l-6.6,0.1c-0.3,0-0.4-0.2-0.2-0.4l1.5-2c-4.1-2.6-9.4-1.6-12.3,2.3c-1.8,2.5-2.1,5.5-1.2,8.2L15.1,26.9z    M35.7,21.1l-3.1,0.1c0.9,2.7,0.5,5.7-1.2,8.2c-2.8,3.9-8.2,4.9-12.3,2.3l1.5-2c0.2-0.2,0.1-0.4-0.2-0.4l-6.6,0.1   c-0.3,0-0.4,0.2-0.4,0.5l1.9,6.3c0.1,0.3,0.3,0.3,0.4,0.1l1.5-2.1l0.1,0c5.4,3.5,12.6,2.2,16.4-3C35.9,28.1,36.5,24.4,35.7,21.1z"/>
</g>
</symbol><symbol id="reset-password" viewBox="12 12 26.78 23.96">
<g id="rotation-lock_1_">
	<path d="M27,21.483V23h0.5c0.275,0,0.5,0.225,0.5,0.5v5c0,0.275-0.225,0.5-0.5,0.5h-7c-0.275,0-0.5-0.225-0.5-0.5v-5   c0-0.275,0.225-0.5,0.5-0.5H21v-1.517C21,20.091,22.05,19,23.389,19h1.223C25.95,19,27,20.091,27,21.483z M23,23h2v-1.517   C25,21.185,24.851,21,24.611,21h-1.223C23.149,21,23,21.185,23,21.483V23z"/>
	<path d="M38.699,23.4L34.8,29.1c-0.165,0.221-0.435,0.221-0.601,0L30.3,23.4c-0.165-0.221-0.075-0.4,0.2-0.4h2.47   c-0.188-4.312-4.187-8-8.97-8c-4.963,0-9,4.037-9,9c0,6.459,5.867,8.976,8.517,8.976s4.308-0.561,5.987-1.864l0.004,0.004   c0.364-0.295,1.004-0.857,1.252-1.088c0.302-0.28,0.855-0.182,1.23,0.222l0.682,0.731c0.375,0.402,0.434,0.961,0.133,1.242   c-0.196,0.182-0.327,0.344-1.17,1.02c-1.885,1.426-4.302,2.717-8.218,2.717S12,32.168,12,24c0-6.617,5.383-12,12-12   c6.411,0,11.781,5.219,11.973,10.93L35.977,23H38.5C38.774,23,38.865,23.181,38.699,23.4z"/>
</g>
</symbol><symbol id="reset" viewBox="11.99 11.81 23.97 24.38">
<g id="refresh_1_">
	<path d="M15.269,26.919l-2.896,0.05c-0.85-3.333-0.285-7.002,1.883-10.001c3.756-5.195,10.906-6.515,16.277-3.005l0.06,0.04   l1.479-2.045c0.161-0.224,0.36-0.19,0.442,0.071l1.926,6.208c0.082,0.263-0.076,0.481-0.351,0.486l-6.498,0.112   c-0.276,0.005-0.368-0.174-0.208-0.394l1.447-2.002c-4.02-2.584-9.342-1.589-12.143,2.286c-1.771,2.449-2.121,5.494-1.221,8.161   L15.269,26.919z M35.603,21.102l-3.098,0.054c0.881,2.656,0.528,5.683-1.234,8.119c-2.801,3.875-8.123,4.87-12.143,2.287   l1.447-2.003c0.16-0.221,0.068-0.4-0.208-0.394l-6.498,0.112c-0.274,0.005-0.433,0.224-0.351,0.485l1.927,6.209   c0.082,0.262,0.281,0.295,0.442,0.072l1.479-2.046l0.06,0.04c5.371,3.51,12.521,2.19,16.277-3.005   C35.857,28.054,36.428,24.415,35.603,21.102z"/>
</g>
</symbol><symbol id="resize-vertical" viewBox="19.24 12.21 9.53 23.57">
<g id="resize-vertical_2_">
	<path d="M28.635,31c0.138,0,0.17,0.08,0.073,0.177l-4.531,4.531c-0.097,0.097-0.256,0.097-0.354,0l-4.531-4.531   C19.195,31.08,19.228,31,19.365,31H22v-4.5c0-0.275,0.225-0.5,0.5-0.5h3c0.275,0,0.5,0.225,0.5,0.5V31H28.635z M22,16.991v4.5   c0,0.275,0.225,0.5,0.5,0.5h3c0.275,0,0.5-0.225,0.5-0.5v-4.5h2.635c0.138,0,0.17-0.08,0.073-0.177l-4.531-4.531   c-0.097-0.098-0.256-0.098-0.354,0l-4.531,4.531c-0.097,0.097-0.064,0.177,0.073,0.177H22z"/>
</g>
</symbol><symbol id="resize" viewBox="12.21 19.24 23.57 9.53">
<g id="resize-horizontal_2_">
	<path d="M35.708,24.177l-4.531,4.531C31.08,28.805,31,28.772,31,28.635V26h-4.5c-0.275,0-0.5-0.225-0.5-0.5v-3   c0-0.275,0.225-0.5,0.5-0.5H31v-2.635c0-0.137,0.08-0.17,0.177-0.073l4.531,4.531C35.805,23.92,35.805,24.08,35.708,24.177z    M21.491,22h-4.5v-2.635c0-0.137-0.08-0.17-0.177-0.073l-4.531,4.531c-0.097,0.097-0.097,0.256,0,0.354l4.531,4.531   c0.097,0.097,0.177,0.064,0.177-0.073V26h4.5c0.275,0,0.5-0.225,0.5-0.5v-3C21.991,22.225,21.766,22,21.491,22z"/>
</g>
</symbol><symbol id="retweet" viewBox="10.23 17 27.57 15">
<g id="retweet_2_">
	<path d="M27.719,29H16v-6h0.013h2.498c0.275,0,0.365-0.294,0.2-0.515l-3.9-5.314c-0.165-0.22-0.434-0.167-0.6,0.053l-3.9,5.259   C10.146,22.703,10.236,23,10.511,23H13v8.5c0,0.275,0.225,0.5,0.5,0.5h16.527L27.719,29z"/>
	<path d="M37.511,26h-2.498H35v-8.5c0-0.275-0.225-0.5-0.5-0.5H18.062l2.309,3H32v6h-2.489c-0.275,0-0.365,0.17-0.2,0.391l3.9,5.195   c0.165,0.22,0.435,0.209,0.6-0.011l3.9-5.188C37.876,26.167,37.787,26,37.511,26z"/>
</g>
</symbol><symbol id="rewind" viewBox="12.28 15 22.72 17.98">
<g id="rewind_2_">
	<path d="M35,15.28v17.423c0,0.274-0.329,0.362-0.547,0.194L24,24.711v0.022v7.971c0,0.274-0.329,0.362-0.547,0.194l-10.971-8.592   c-0.217-0.168-0.28-0.443-0.062-0.611l11.033-8.608C23.671,14.918,24,15.005,24,15.28v7.939v0.023l10.453-8.156   C34.671,14.918,35,15.005,35,15.28z"/>
</g>
</symbol><symbol id="right" viewBox="14 15.54 19.99 16.92">
<g id="arrow-right_2_">
	<path d="M23,32.181V27h-8.487C14.237,27,14,26.763,14,26.487v-4.977C14,21.236,14.237,21,14.513,21H23v-5.181   c0-0.275,0.186-0.362,0.404-0.194l10.428,8.069c0.218,0.168,0.216,0.443-0.002,0.611l-10.425,8.069   C23.187,32.543,23,32.455,23,32.181z"/>
</g>
</symbol><symbol id="rotate-left" viewBox="9.22 12 26.78 23.96">
<g id="rotate-left_2_">
	<path d="M24,26c-1.105,0-2-0.896-2-2s0.895-2,2-2s2,0.896,2,2S25.105,26,24,26z M24,12c-6.411,0-11.781,5.219-11.973,10.93   L12.023,23H9.5c-0.274,0-0.365,0.181-0.199,0.4L13.2,29.1c0.165,0.221,0.435,0.221,0.601,0L17.7,23.4   c0.165-0.221,0.075-0.4-0.2-0.4h-2.47c0.188-4.312,4.187-8,8.97-8c4.963,0,9,4.037,9,9c0,4.647-3.147,7.369-6,8.44   c0,0-1.768,0.52-2.501,0.536C24.223,32.983,24,33.186,24,33.462v1.973c0,0.276,0.224,0.521,0.5,0.523   c0.763,0.005,2.5-0.382,2.5-0.382c4.131-1.174,9-5.105,9-11.576C36,17.383,30.617,12,24,12z"/>
</g>
</symbol><symbol id="rotate-right" viewBox="12 12 26.78 23.96">
<g id="rotate-right_2_">
	<path d="M26,24c0,1.104-0.895,2-2,2s-2-0.896-2-2s0.895-2,2-2S26,22.896,26,24z M38.5,23h-2.523l-0.004-0.07   C35.781,17.219,30.411,12,24,12c-6.617,0-12,5.383-12,12c0,6.47,4.869,10.402,9,11.576c0,0,1.737,0.387,2.5,0.382   c0.276-0.001,0.5-0.247,0.5-0.523v-1.973c0-0.276-0.223-0.479-0.499-0.485C22.768,32.96,21,32.44,21,32.44   c-2.853-1.072-6-3.793-6-8.44c0-4.963,4.037-9,9-9c4.783,0,8.781,3.688,8.97,8H30.5c-0.275,0-0.365,0.18-0.2,0.4l3.899,5.699   c0.166,0.221,0.436,0.221,0.601,0l3.899-5.699C38.865,23.181,38.774,23,38.5,23z"/>
</g>
</symbol><symbol id="row-draggable" viewBox="0.2 0.2 15.5 24.2">
<g>
	<circle cx="12.8" cy="21.5" r="2.9"/>
	<circle cx="3.1" cy="21.5" r="2.9"/>
	<circle cx="12.8" cy="12.3" r="2.9"/>
	<circle cx="3.1" cy="12.3" r="2.9"/>
	<circle cx="12.8" cy="3.1" r="2.9"/>
	<circle cx="3.1" cy="3.1" r="2.9"/>
</g>
</symbol><symbol id="save-new" viewBox="13 13 22 22">
<g id="floppy-open_2_">
	<path d="M28.5,28H26v3.5c0,0.276-0.224,0.5-0.5,0.5h-3c-0.276,0-0.5-0.224-0.5-0.5V28h-2.445c-0.276,0-0.358-0.173-0.182-0.386   l4.309-5.228c0.176-0.213,0.461-0.214,0.638-0.002l4.36,5.232C28.857,27.828,28.776,28,28.5,28z M29,13h-2v4h2V13z M35,17.002   v16.999C35,34.552,34.549,35,33.998,35H13.999C13.449,35,13,34.552,13,34.001V14.003C13,13.452,13.449,13,13.999,13H18v5h12v-5   h0.998L35,17.002z M32,25h-3.214l-4.458-4.978c-0.184-0.206-0.482-0.205-0.666,0.001L19.232,25H16v8h16V25z"/>
</g>
</symbol><symbol id="save-view" viewBox="9.48 10 29.74 21.96">
<g id="eye-plus_2_">
	<path d="M36.226,20.752C35.271,21.29,34.172,21.6,33,21.6c-0.243,0-0.481-0.011-0.714-0.031c2.082,1,3.724,2.156,4.561,2.922   c-1.124,1.032-3.69,2.996-6.85,4.269c1.47-1.455,2.381-3.474,2.381-5.707c0-0.51-0.053-1.006-0.144-1.49   c-0.841-0.081-1.614-0.299-2.307-0.628c0.253,0.66,0.4,1.37,0.4,2.119c0,3.304-2.678,5.981-5.981,5.981   c-3.304,0-5.982-2.678-5.982-5.981c0-0.88,0.195-1.714,0.537-2.466c0.997-0.36,2.059-0.656,3.175-0.832   c-1.048,0.723-1.737,1.93-1.737,3.298c0,2.212,1.794,4.009,4.007,4.009s4.007-1.797,4.007-4.009c0-1.37-0.691-2.579-1.742-3.302   c0.755,0.115,1.485,0.296,2.2,0.5c-1.339-1.036-2.202-2.608-2.378-4.517c-0.672-0.089-1.363-0.15-2.087-0.15   c-9.844,0-14.868,8.906-14.868,8.906s7.065,7.469,14.868,7.469c7.804,0,14.868-7.469,14.868-7.469S38.208,22.716,36.226,20.752z    M23.477,24.854l-0.734,0.734c-0.538-0.342-0.941-0.859-1.178-1.459l0.814-0.812C22.471,23.993,22.885,24.567,23.477,24.854z    M12.283,24.488c0.809-0.743,2.275-1.852,4.161-2.83c-0.079,0.453-0.129,0.917-0.129,1.394c0,2.181,0.871,4.154,2.28,5.601   C15.678,27.38,13.38,25.493,12.283,24.488z M38,15c0,2.762-2.238,5-5,5c-2.761,0-5-1.794-5-5c0-2.984,2.239-5,5-5   C35.762,10,38,12.238,38,15z M36,14.5c0-0.275-0.225-0.5-0.5-0.5H34v-1.5c0-0.275-0.225-0.5-0.5-0.5h-1c-0.275,0-0.5,0.225-0.5,0.5   V14h-1.5c-0.275,0-0.5,0.225-0.5,0.5v1c0,0.275,0.225,0.5,0.5,0.5H32v1.5c0,0.275,0.225,0.5,0.5,0.5h1c0.275,0,0.5-0.225,0.5-0.5   V16h1.5c0.275,0,0.5-0.225,0.5-0.5V14.5z"/>
</g>
</symbol><symbol id="save" viewBox="13 13 22 23">
<g id="floppy-disk_2_">
	<path d="M29,17h-2v-4h2V17z M35,17.002v17.999C35,35.552,34.549,36,33.998,36H13.999C13.449,36,13,35.552,13,35.001V14.003   C13,13.452,13.449,13,13.999,13H18v5h12v-5h0.998L35,17.002z M32,34v-9H16v9H32z"/>
</g>
</symbol><symbol id="scissors-alt" viewBox="12.03 13.04 24.88 21.92">
<g id="scissors-alt_2_">
	<path d="M20.814,27.047c-0.595-0.373-0.964-1.007-1.032-1.782l-6.297,2.985c-1.273,0.606-1.815,2.134-1.209,3.406l0.879,1.846   c0.606,1.273,2.133,1.815,3.406,1.209l1.776-0.82c1.147-0.546,1.704-1.795,1.622-3.061l0.006-3.383   C19.966,27.448,20.281,27.299,20.814,27.047z M17.575,32.245l-2.024,0.938c-0.288,0.137-0.646,0.01-0.783-0.278l-1.011-2.123   c-0.137-0.288-0.01-0.646,0.278-0.783c0,0,2.158-1.001,3.168-1.482c0.448-0.213,0.799-0.075,0.846,0.452   c0.072,0.805,0.139,2.131,0.139,2.131C18.22,31.587,18.015,32.035,17.575,32.245z M24.656,21.001   c3.847-1.191,9.386-2.843,9.427-2.854c1.001-0.259,2.092-0.264,2.824,1.274c-0.952,0.453-4.311,2.045-7.79,3.693   C27.55,22.373,26.002,21.639,24.656,21.001z M19.966,20.552l-0.006-3.383c0.082-1.266-0.476-2.515-1.622-3.061l-1.776-0.82   c-1.273-0.606-2.8-0.064-3.406,1.209l-0.879,1.846c-0.606,1.273-0.064,2.8,1.209,3.406l7.547,3.578c0,0,0.016,1.203,0.016,1.688   s0.193,0.891,0.636,1.04c2.627,0.883,12.346,3.783,12.4,3.797c1.001,0.259,2.092,0.264,2.824-1.274   C34.73,27.542,19.966,20.552,19.966,20.552z M24,24c0,0.552-0.448,1-1,1s-1-0.448-1-1s0.448-1,1-1S24,23.448,24,24z M14.035,18.002   c-0.288-0.137-0.415-0.495-0.278-0.783l1.011-2.123c0.137-0.288,0.495-0.415,0.783-0.278l2.024,0.937   c0.441,0.21,0.645,0.658,0.614,1.147c0,0-0.067,1.326-0.139,2.131c-0.047,0.527-0.398,0.665-0.846,0.452   C16.193,19.004,14.035,18.002,14.035,18.002z"/>
</g>
</symbol><symbol id="search" viewBox="12.26 12.25 23.49 23.49">
<g id="search_1_">
	<path d="M35.602,32.755l-5.878-5.879c0.956-1.481,1.521-3.24,1.521-5.132c0-5.235-4.262-9.494-9.496-9.494   c-5.236,0-9.494,4.259-9.494,9.494c0,5.236,4.258,9.495,9.494,9.495c1.891,0,3.649-0.562,5.132-1.519l5.878,5.878   c0.195,0.196,0.518,0.196,0.712,0l2.132-2.132C35.799,33.271,35.799,32.951,35.602,32.755z M15.269,21.744   c0-3.571,2.906-6.479,6.479-6.479c3.573,0,6.479,2.907,6.479,6.479c0,3.573-2.905,6.479-6.479,6.479   C18.176,28.224,15.269,25.317,15.269,21.744z"/>
</g>
</symbol><symbol id="send" viewBox="2 3 21 18"><path d="M2,21L23,12L2,3V10L17,12L2,14V21Z"/></symbol><symbol id="sort-ascending" viewBox="12 13 23 22.5">
<path d="M26,16.5v-2c0-0.5,0.5-1,1-1h2c0.5,0,1,0.5,1,1v2c0,0.5-0.5,1-1,1h-2C26.5,17.5,26,17,26,16.5z"/>
<path d="M27,23.5h3c0.5,0,1-0.5,1-1v-2c0-0.5-0.5-1-1-1h-3c-0.5,0-1,0.5-1,1v2C26,23,26.5,23.5,27,23.5z"/>
<path d="M34,31.5h-7c-0.5,0-1,0.5-1,1v2c0,0.5,0.5,1,1,1h7c0.5,0,1-0.5,1-1v-2C35,32,34.5,31.5,34,31.5z"/>
<path d="M27,29.5h5c0.5,0,1-0.5,1-1v-2c0-0.5-0.5-1-1-1h-5c-0.5,0-1,0.5-1,1v2C26,29,26.5,29.5,27,29.5z"/>
<path d="M21,19.5h4L18.5,13L12,19.5h4v15c0,0.5,0.5,1,1,1h3c0.5,0,1-0.5,1-1V19.5z"/>
</symbol><symbol id="sort-descending" viewBox="12 13 23 22.5">
<path d="M30,32v2c0,0.5-0.5,1-1,1h-2c-0.5,0-1-0.5-1-1v-2c0-0.5,0.5-1,1-1h2C29.5,31,30,31.5,30,32z"/>
<path d="M21,14c0-0.6-0.5-1-1-1h-3c-0.5,0-1,0.4-1,1v15h-4l6.5,6.5L25,29h-4V14z"/>
<path d="M30,25h-3c-0.5,0-1,0.5-1,1v2c0,0.5,0.5,1,1,1h3c0.5,0,1-0.5,1-1v-2C31,25.5,30.5,25,30,25z"/>
<path d="M32,19h-5c-0.5,0-1,0.5-1,1v2c0,0.5,0.5,1,1,1h5c0.5,0,1-0.5,1-1v-2C33,19.5,32.5,19,32,19z"/>
<path d="M34,13h-7c-0.5,0-1,0.5-1,1v2c0,0.5,0.5,1,1,1h7c0.5,0,1-0.5,1-1v-2C35,13.5,34.5,13,34,13z"/>
</symbol><symbol id="sort" viewBox="11 12 25 25">
<g id="sort_2_">
	<path d="M32,16.5v16c0,0.275-0.225,0.5-0.5,0.5h-2c-0.275,0-0.5-0.225-0.5-0.5V19H15.542C15.267,19,15,18.775,15,18.5v-2   c0-0.275,0.267-0.5,0.542-0.5H31.5C31.775,16,32,16.225,32,16.5z M11.5,20c-0.275,0-0.5,0.225-0.5,0.5v16   c0,0.275,0.225,0.5,0.5,0.5h16c0.275,0,0.5-0.225,0.5-0.5V20H11.5z M35.5,12H19.542C19.267,12,19,12.225,19,12.5v2   c0,0.275,0.267,0.5,0.542,0.5H33v13.5c0,0.275,0.225,0.5,0.5,0.5h2c0.275,0,0.5-0.225,0.5-0.5v-16C36,12.225,35.775,12,35.5,12z"/>
</g>
</symbol><symbol id="square-minus" viewBox="12 12 23.91 23.9">
<g>
	<path d="M32.9,12H15.1c-1.7,0-3.1,1.4-3.1,3.1v17.7c0,1.7,1.4,3.1,3.1,3.1h17.7c1.7,0,3.1-1.4,3.1-3.1V15.1   C36,13.4,34.6,12,32.9,12z M33.5,32.9c0,0.3-0.3,0.6-0.6,0.6H15.1c-0.3,0-0.6-0.3-0.6-0.6V15.1c0-0.3,0.3-0.6,0.6-0.6h17.7   c0.3,0,0.6,0.3,0.6,0.6V32.9z"/>
	<path d="M29.6,21.9H18.4c-0.3,0-0.5,0.2-0.5,0.5v3.2c0,0.3,0.2,0.5,0.5,0.5h11.2c0.3,0,0.5-0.2,0.5-0.5v-3.2   C30.1,22.1,29.9,21.9,29.6,21.9z"/>
</g>
</symbol><symbol id="square-plus" viewBox="12 12 23.91 23.9">
<path d="M32.9,12H15.1c-1.7,0-3.1,1.4-3.1,3.1v17.7c0,1.7,1.4,3.1,3.1,3.1h17.7c1.7,0,3.1-1.4,3.1-3.1V15.1C36,13.4,34.6,12,32.9,12  z M31.1,25.5c0,0.3-0.2,0.5-0.5,0.5H26v4.6c0,0.3-0.2,0.5-0.5,0.5h-3c-0.3,0-0.5-0.2-0.5-0.5V26h-4.6c-0.3,0-0.5-0.2-0.5-0.5v-3  c0-0.3,0.2-0.5,0.5-0.5H22v-4.6c0-0.3,0.2-0.5,0.5-0.5h3c0.3,0,0.5,0.2,0.5,0.5V22h4.6c0.3,0,0.5,0.2,0.5,0.5V25.5z"/>
</symbol><symbol id="square" viewBox="0 0 23.91 23.9">
<path d="M20.9,0H3.1C1.4,0,0,1.4,0,3.1v17.7c0,1.7,1.4,3.1,3.1,3.1h17.7c1.7,0,3.1-1.4,3.1-3.1V3.1C24,1.4,22.6,0,20.9,0z"/>
</symbol><symbol id="star" viewBox="12 12 24.91 23.32">
<g id="star_2_">
	<path d="M36.906,21h-9.438l-2.922-9l-2.971,9H12l7.757,5.455l-2.913,8.862l7.648-5.564l7.679,5.508l-2.909-8.85L36.906,21z"/>
</g>
</symbol><symbol id="stats" viewBox="12 11 26 25">
<g id="stats_2_">
	<g>
		<path d="M35.5,16.021c1.381,0,2.5-1.117,2.5-2.5s-1.119-2.5-2.5-2.5s-2.5,1.117-2.5,2.5c0,0.613,0.229,1.166,0.594,1.601    l-3.32,5.033c-0.244-0.08-0.502-0.134-0.773-0.134c-1.381,0-2.5,1.117-2.5,2.5c0,0.105,0.019,0.205,0.031,0.307l-4.654,2.058    c-0.458-0.525-1.125-0.864-1.877-0.864c-1.381,0-2.5,1.117-2.5,2.5c0,0.474,0.139,0.911,0.367,1.288L14,32.854V11h-1h-1v25h1h24    v-1v-1H14.992l4.497-5.196c0.309,0.138,0.65,0.217,1.011,0.217c1.381,0,2.5-1.117,2.5-2.5c0-0.089-0.018-0.173-0.026-0.26    l4.679-2.068c0.457,0.505,1.112,0.828,1.848,0.828c1.381,0,2.5-1.117,2.5-2.5c0-0.562-0.191-1.076-0.505-1.493l3.364-5.1    C35.064,15.982,35.277,16.021,35.5,16.021z"/>
	</g>
	<g>
		<path d="M15.604,31H14v-1h2.471L15.604,31z M17,27h-3v-1h3v-3h-3v-1h3v-3h-3v-1h3v-3h-3v-1h3v-3h1v3h3v-3h1v3h3v-3h1v3h3v-3h1v3h3    v-0.479c0,0.613,0.229,1.166,0.594,1.601L33,16.021V15h-3v3h1.694l-0.659,1H30v1.084c-0.162-0.036-0.326-0.063-0.5-0.063    c-0.172,0-0.338,0.018-0.5,0.051V19h-3v3h1.056C27.02,22.168,27,22.342,27,22.521c0,0.105,0.019,0.205,0.031,0.307L26.64,23H26    v0.283l-1,0.441V23h-3v1.531c-0.29-0.222-0.63-0.378-1-0.455V23h-3v3h0.056C18.02,26.168,18,26.342,18,26.521    c0,0.167,0.037,0.322,0.068,0.479H18v1.232l-1,1.155V27z M26,18h3v-3h-3V18z M22,18h3v-3h-3V18z M22,22h3v-3h-3V22z M18,18h3v-3    h-3V18z M18,22h3v-3h-3V22z M34,11.531V11h-1v2.521C33,12.704,33.396,11.987,34,11.531z M34,18h3v1h-3v3h3v1h-3v3h3v1h-3v3h3v1h-3    v3h-1v-3h-3v3h-1v-3h-3v3h-1v-3h-3v3h-1v-3h-3v3h-1v-2.32L18.454,30H21v-1.03c0.372-0.075,0.708-0.239,1-0.46V30h3v-3h-2.049    C22.982,26.845,23,26.685,23,26.521c0-0.089-0.018-0.173-0.026-0.26L23.563,26H25v-0.635l1-0.442V26h3v-1.034    c0.162,0.033,0.328,0.055,0.5,0.055s0.338-0.018,0.5-0.051V26h3v-3h-1.049C31.982,22.845,32,22.685,32,22.521    c0-0.18-0.025-0.353-0.062-0.521H33v-3h-0.168L34,17.23V18z M29,27h-3v3h3V27z M33,27h-3v3h3V27z"/>
	</g>
</g>
</symbol><symbol id="step-back" viewBox="15.81 13.51 14.17 20.99">
<g id="chevron-left_2_">
	<polygon points="15.808,24 26.301,13.507 29.973,17.179 23.161,24 29.977,30.816 26.302,34.492  "/>
</g>
</symbol><symbol id="step-forward" viewBox="18.06 13.51 14.17 20.99">
<g id="chevron-right_1_">
	<polygon points="32.227,24 21.734,13.507 18.062,17.179 24.874,24 18.058,30.816 21.733,34.492  "/>
</g>
</symbol><symbol id="submit" viewBox="14 15 22 18">
<g id="log-in_2_">
	<path d="M36,19v10c0,2.206-1.795,4-4,4H22c-2.205,0-4-1.794-4-4v-1h2v2c0,0.55,0.45,1,1,1h12c0.55,0,1-0.45,1-1V18   c0-0.55-0.45-1-1-1H21c-0.55,0-1,0.45-1,1v2h-2v-1c0-2.206,1.795-4,4-4h10C34.205,15,36,16.794,36,19z M27.614,23.654l-5.229-4.309   C22.174,19.171,22,19.252,22,19.527V22h-7.5c-0.276,0-0.5,0.224-0.5,0.5v3c0,0.276,0.224,0.5,0.5,0.5H22v2.473   c0,0.275,0.173,0.355,0.384,0.18l5.231-4.359C27.827,24.117,27.826,23.829,27.614,23.654z"/>
</g>
</symbol><symbol id="success" viewBox="11.75 11.75 24.5 24.5">
<g id="ok-sign_2_">
	<path d="M32.662,15.338c-4.784-4.784-12.54-4.784-17.324,0s-4.784,12.54,0,17.324s12.54,4.784,17.324,0   C37.445,27.878,37.446,20.122,32.662,15.338z M31.06,20.987l-8.512,8.511c-0.127,0.128-0.337,0.128-0.465,0l-5.164-5.165   c-0.128-0.127-0.128-0.336,0-0.465l2.134-2.133c0.128-0.128,0.337-0.128,0.464,0l2.567,2.567c0.128,0.127,0.337,0.127,0.465,0   l5.896-5.895c0.127-0.128,0.337-0.129,0.467-0.002l2.146,2.118C31.187,20.651,31.187,20.859,31.06,20.987z"/>
</g>
</symbol><symbol id="suggestion-mode-close" viewBox="0.56 2.6 31.04 25.25">
<g>
	<path d="M15.3,15.3L9.3,24v-3.5l5.6-6.1c-0.4-0.9-0.7-1.9-0.8-2.9l-13,8c-0.8,0.5-0.7,0.8,0.2,0.8h6.2v6.7c0,1,0.5,1.1,1.1,0.4   l4.3-5.4l6.2,3.7c0.8,0.5,1.5,0.1,1.5-0.8v-5.3c-1.4-0.5-2.7-1.3-3.8-2.3C16.2,16.7,15.7,16,15.3,15.3z"/>
	<path d="M31.5,8.9c-0.3-1.5-1-2.9-2.1-4c-1-1-2.1-1.6-3.3-2c-0.5-0.1-1-0.2-1.5-0.3c-0.2,0-0.5,0-0.8,0c-0.5,0-1,0-1.5,0.1   c-1.5,0.3-2.9,1-4,2.2C16.8,6.3,16,8.3,16,10.3c0,0.8,0.1,1.7,0.4,2.5c0.1,0.2,0.2,0.5,0.3,0.7c0.4,0.9,0.9,1.7,1.6,2.4   c0.2,0.2,0.4,0.4,0.6,0.5c0.4,0.3,0.8,0.6,1.3,0.9c0.1,0.1,0.3,0.1,0.4,0.2c0.3,0.1,0.6,0.3,1,0.4c0.2,0.1,0.5,0.1,0.7,0.2   c0.5,0.1,1,0.1,1.5,0.1c0.3,0,0.5,0,0.8,0c0.5,0,1-0.1,1.5-0.3c0.5-0.1,1-0.3,1.4-0.6c0.5-0.2,0.9-0.5,1.3-0.9   c0.2-0.2,0.4-0.3,0.6-0.5c0.4-0.4,0.7-0.8,1-1.2c0.3-0.4,0.5-0.9,0.7-1.4c0.2-0.5,0.3-1,0.4-1.5c0.1-0.5,0.1-1,0.1-1.5   C31.6,9.9,31.6,9.4,31.5,8.9z M28.1,12.5c0.1,0.1,0.1,0.4,0,0.5l-1.6,1.6c-0.1,0.1-0.4,0.1-0.5,0l-2.2-2.2l-2.2,2.2   c-0.1,0.1-0.4,0.1-0.5,0l-1.6-1.6c-0.1-0.1-0.1-0.4,0-0.5l2.2-2.2l-2.2-2.2c-0.1-0.1-0.1-0.4,0-0.5L21.1,6c0.1-0.1,0.4-0.1,0.5,0   l2.2,2.2L26,6c0.1-0.1,0.4-0.1,0.5,0l1.6,1.6c0.1,0.1,0.1,0.4,0,0.5L26,10.4L28.1,12.5z"/>
</g>
</symbol><symbol id="suggestion-mode-view" viewBox="1.1 1.6 30.6 26.9">
<style type="text/css">
	.st0{fill:none;}
</style>
<path class="st0" d="M8,18.1c-1.9,1-3.4,2.1-4.2,2.8c1.1,1,3.4,2.9,6.3,4.2c-1.4-1.4-2.3-3.4-2.3-5.6C7.9,19.1,7.9,18.6,8,18.1z"/>
<path d="M24,18.1c2,1,3.6,2.1,4.4,2.9c-1.1,1-3.7,3-6.9,4.3c1.5-1.5,2.4-3.5,2.4-5.7c0-0.5-0.1-1-0.1-1.4c-0.8,0-1.5-0.1-2.2-0.3  c0.2,0.6,0.3,1.1,0.3,1.8c0,3.3-2.7,6-6,6c-3.3,0-6-2.7-6-6c0-0.9,0.2-1.7,0.5-2.5c1-0.4,2.1-0.7,3.2-0.8c-1,0.7-1.7,1.9-1.7,3.3  c0,2.2,1.8,4,4,4c2.2,0,4-1.8,4-4c0-1.4-0.7-2.6-1.7-3.3c0.1,0,0.2,0,0.4,0.1c-1.4-1-2.4-2.5-3-4.2C6,12.3,1.1,21,1.1,21  s7.1,7.5,14.9,7.5c7.8,0,14.9-7.5,14.9-7.5s-1-1.7-2.8-3.6c-1.1,0.5-2.3,0.7-3.6,0.7C24.2,18.1,24.1,18.1,24,18.1z M15.1,21.3  l-0.7,0.7c-0.5-0.3-0.9-0.9-1.2-1.5l0.8-0.8C14.1,20.5,14.5,21.1,15.1,21.3z M3.9,21c0.8-0.7,2.3-1.9,4.2-2.8  c-0.1,0.5-0.1,0.9-0.1,1.4c0,2.2,0.9,4.2,2.3,5.6C7.3,23.9,5,22,3.9,21z"/>
<g>
	<polygon points="22.5,12.1 27.6,4.9 22.5,10.4  "/>
	<path d="M24.4,1.6c-4,0-7.3,2.9-7.3,7.3c0,4.7,3.3,7.3,7.3,7.3c4,0,7.3-3.2,7.3-7.3S28.4,1.6,24.4,1.6z M28.1,12.6   c0,0.5-0.3,0.7-0.7,0.4l-3-1.8l-2.1,2.6c-0.3,0.4-0.5,0.3-0.5-0.2v-3.3h-3c-0.5,0-0.5-0.2-0.1-0.4l8.8-5.5c0.4-0.2,0.7-0.1,0.7,0.4   V12.6z"/>
</g>
</symbol><symbol id="suggestion-mode" viewBox="12.01 13 22.99 22.64">
<g id="send_2_">
	<path d="M33.266,13.263L12.639,26.041C11.705,26.625,11.823,27,12.924,27H20v7.672c0,1.101,0.523,1.297,1.21,0.438l4.927-6.191   l7.119,4.254C34.199,33.739,35,33.302,35,32.202v-18C35,13.102,34.198,12.679,33.266,13.263z M22,31.202v-4l11.857-13L22,31.202z"/>
</g>
</symbol><symbol id="system-choice" viewBox="12 12 23 24">
<g id="calendar_2_">
	<path d="M12,19v16c0,0.55,0.45,1,1,1h21c0.55,0,1-0.45,1-1V19H12z M17,34h-3v-3h3V34z M17,30h-3v-3h3V30z M17,26h-3v-3h3V26z    M21,34h-3v-3h3V34z M21,30h-3v-3h3V30z M21,26h-3v-3h3V26z M25,34h-3v-3h3V34z M25,30h-3v-3h3V30z M25,26h-3v-3h3V26z M29,34h-3   v-3h3V34z M29,30h-3v-3h3V30z M29,26h-3v-3h3V26z M33,34h-3v-3h3V34z M33,30h-3v-3h3V30z M33,26h-3v-3h3V26z M35,15v3H12v-3   c0-0.55,0.45-1,1-1h2v-1c0-0.55,0.45-1,1-1h1c0.55,0,1,0.45,1,1v1h11v-1c0-0.55,0.45-1,1-1h1c0.55,0,1,0.45,1,1v1h2   C34.55,14,35,14.45,35,15z"/>
</g>
</symbol><symbol id="table-configuration" viewBox="12 12 23.9 23.9">
<g id="cogwheel_2_">
	<path d="M35.794,25.491c0.065-0.505,0.11-1.016,0.11-1.539c0-0.523-0.045-1.034-0.11-1.539l-3.157-0.79   c-0.205-0.767-0.507-1.494-0.896-2.167l1.673-2.787c-0.63-0.817-1.361-1.549-2.179-2.179l-2.787,1.673   c-0.673-0.389-1.399-0.69-2.167-0.895l-0.79-3.157C24.986,12.045,24.476,12,23.952,12c-0.523,0-1.034,0.045-1.539,0.11l-0.79,3.157   c-0.767,0.205-1.493,0.507-2.165,0.895l-2.788-1.674c-0.817,0.63-1.549,1.361-2.179,2.179l1.673,2.787   c-0.39,0.673-0.691,1.399-0.896,2.168l-3.157,0.79C12.045,22.918,12,23.429,12,23.952c0,0.523,0.045,1.034,0.11,1.539l3.157,0.79   c0.205,0.767,0.507,1.495,0.896,2.167l-1.674,2.787c0.63,0.817,1.361,1.549,2.179,2.179l2.787-1.673   c0.673,0.389,1.399,0.69,2.167,0.896l0.79,3.157c0.505,0.066,1.016,0.11,1.539,0.11c0.524,0,1.034-0.045,1.539-0.11l0.79-3.157   c0.769-0.206,1.495-0.507,2.168-0.896l2.788,1.673c0.816-0.63,1.548-1.361,2.178-2.179l-1.674-2.787   c0.389-0.673,0.69-1.399,0.896-2.166L35.794,25.491z M23.952,28.133c-2.309,0-4.181-1.872-4.181-4.181   c0-2.309,1.872-4.181,4.181-4.181c2.309,0,4.181,1.872,4.181,4.181C28.133,26.261,26.261,28.133,23.952,28.133z"/>
</g>
</symbol><symbol id="tag" viewBox="1.1 1.2 21.45 21.55">
<g id="tag_2_">
	<path d="M10.4,1.5c-0.2-0.2-0.5-0.3-0.8-0.3h-8c-0.2,0-0.5,0.2-0.5,0.5v8c0,0.2,0.1,0.6,0.3,0.8l12.1,12.1c0.2,0.2,0.5,0.2,0.6,0   l8.3-8.3c0.2-0.2,0.2-0.5,0-0.6L10.4,1.5z M7,7C6.3,7.7,5.1,7.7,4.4,7c-0.7-0.7-0.7-1.8,0-2.6c0.7-0.7,1.8-0.7,2.6,0   C7.7,5.1,7.7,6.3,7,7z"/>
</g>
</symbol><symbol id="time" viewBox="12 12 24 24">
<g id="clock_1_">
	<g id="clock_4_">
		<path d="M24,12c-6.617,0-12,5.383-12,12s5.383,12,12,12c6.617,0,12-5.383,12-12S30.617,12,24,12z M24,33c-4.971,0-9-4.029-9-9    s4.029-9,9-9c4.971,0,9,4.029,9,9S28.971,33,24,33z M25,22.277v-4.762C25,17.24,24.758,17,24.483,17h-0.982    c-0.274,0-0.5,0.24-0.5,0.516L23,22.277C22.7,22.452,22.452,22.7,22.277,23H19.5c-0.275,0-0.5,0.273-0.5,0.548V24.5    c0,0.275,0.225,0.5,0.5,0.5h2.777c0.346,0.595,0.984,1,1.723,1c1.105,0,2-0.896,2-2C26,23.262,25.595,22.624,25,22.277z"/>
	</g>
</g>
</symbol><symbol id="unchecked" viewBox="15 15 18 18">
<g id="unchecked_2_">
	<path d="M29,15H19c-2.205,0-4,1.794-4,4v10c0,2.206,1.795,4,4,4h10c2.205,0,4-1.794,4-4V19C33,16.794,31.205,15,29,15z M31,30   c0,0.55-0.45,1-1,1H18c-0.55,0-1-0.45-1-1V18c0-0.55,0.45-1,1-1h12c0.55,0,1,0.45,1,1V30z"/>
</g>
</symbol><symbol id="undo" viewBox="0.46 5.69 23.84 13.31">
<g id="undo_2_">
	<path d="M24.3,16.8c-2.8-4.1-9-4-14.5-2l1.2,3.9c0.1,0.2-0.1,0.3-0.3,0.3L0.7,15.2c-0.2-0.1-0.3-0.3-0.2-0.5l6.2-8.9   C6.8,5.6,7,5.7,7.1,5.9c0,0,0.9,2.9,1.1,3.6C17.3,7.2,23.8,12,24.3,16.8z"/>
</g>
</symbol><symbol id="upload-img" viewBox="12 11.8 24 24.2">
<g>
	<path d="M33,29v2h-8.4h-1.1H15v-2h-3v6c0,0.5,0.5,1,1,1h22c0.5,0,1-0.5,1-1v-6H33z"/>
	<path d="M16.3,21H21v7.5c0,0.3,0.3,0.5,0.5,0.5h5c0.3,0,0.5-0.2,0.5-0.5V21h4.8c0.3,0,0.3-0.2,0.2-0.4L24.6,12h0   c-0.1-0.1-0.3-0.2-0.5-0.2c-0.2,0-0.4,0.1-0.5,0.2h0l-7.4,8.6C16,20.8,16.1,21,16.3,21z"/>
</g>
</symbol><symbol id="upload" viewBox="12 11.8 24 24.2">
<g>
	<path d="M33,29v2h-8.4h-1.1H15v-2h-3v6c0,0.5,0.5,1,1,1h22c0.5,0,1-0.5,1-1v-6H33z"/>
	<path d="M16.3,21H21v7.5c0,0.3,0.3,0.5,0.5,0.5h5c0.3,0,0.5-0.2,0.5-0.5V21h4.8c0.3,0,0.3-0.2,0.2-0.4L24.6,12h0   c-0.1-0.1-0.3-0.2-0.5-0.2c-0.2,0-0.4,0.1-0.5,0.2h0l-7.4,8.6C16,20.8,16.1,21,16.3,21z"/>
</g>
</symbol><symbol id="user-help" viewBox="13 12 22 24">
<g id="book_1_">
	<path d="M31,12H16.5L13,15.75V36h15c1.65,0,3-1.35,3-3V19c0-1.65-1.35-3-3-3H15.734l2-2c0,0,11.266,0,12.266,0c2,0,3,1,3,3   c0,1,0,16,0,16l2-2V16C35,14,33,12,31,12z"/>
</g>
</symbol><symbol id="user" viewBox="13 13 23 22">
<g id="user_1_">
	<path id="user_2_" d="M35,30.208c-0.644-0.366-4.843-2.851-7-3.724v-3.777c0.624-0.456,1-1.158,1-2.223V17.5   c0-2.475-1.5-4.5-4.5-4.5S20,15.025,20,17.5c0,0,0,0.484,0,2.984c0,1.075,0.376,1.779,1,2.233v3.767   c-2.032,0.873-6.356,3.357-7,3.724c-0.801,0.455-1,0.888-1,1.94c0,0.43,0,2.352,0,2.352c0,0.275,0.225,0.5,0.5,0.5h22   c0.275,0,0.5-0.225,0.5-0.5c0,0,0-1.922,0-2.352C36,31.096,35.801,30.663,35,30.208z"/>
</g>
</symbol><symbol id="vertical-flip" viewBox="13 12 22 24">
<g id="reflect-y_2_">
	<path d="M25,34.5v1c0,0.276-0.224,0.5-0.5,0.5h-1c-0.276,0-0.5-0.224-0.5-0.5v-1c0-0.276,0.224-0.5,0.5-0.5h1   C24.776,34,25,34.224,25,34.5z M20.956,26.043c0.364,0.394,0.354,1.003-0.023,1.384l-6.222,6.277C14.519,33.897,14.262,34,14,34   c-0.128,0-0.257-0.024-0.381-0.075C13.245,33.771,13,33.405,13,33V20c0-0.411,0.252-0.781,0.635-0.931   c0.384-0.149,0.819-0.05,1.099,0.251L20.956,26.043z M18.837,26.699L15,22.553v8.018L18.837,26.699z M24.5,30h-1   c-0.276,0-0.5,0.224-0.5,0.5v1c0,0.276,0.224,0.5,0.5,0.5h1c0.276,0,0.5-0.224,0.5-0.5v-1C25,30.224,24.776,30,24.5,30z    M34.365,19.069c-0.383-0.15-0.819-0.05-1.099,0.251l-6.222,6.723c-0.364,0.394-0.354,1.003,0.023,1.384l6.222,6.277   C33.481,33.897,33.738,34,34,34c0.128,0,0.257-0.024,0.381-0.075C34.755,33.771,35,33.405,35,33V20   C35,19.589,34.748,19.219,34.365,19.069z M24.5,26h-1c-0.276,0-0.5,0.224-0.5,0.5v1c0,0.276,0.224,0.5,0.5,0.5h1   c0.276,0,0.5-0.224,0.5-0.5v-1C25,26.224,24.776,26,24.5,26z M29,15.75v-3.621c0-0.142-0.082-0.176-0.182-0.075l-1.347,1.347   c-0.966-0.731-2.165-1.172-3.47-1.172c-2.759,0-5.061,1.938-5.63,4.527C18.34,16.891,18.433,17,18.571,17h1.038   c0.138,0,0.276-0.109,0.316-0.241c0.534-1.75,2.153-3.03,4.075-3.03c0.89,0,1.704,0.289,2.383,0.759l-1.33,1.33   C24.953,15.918,24.987,16,25.129,16h3.621C28.888,16,29,15.888,29,15.75z M24.5,18h-1c-0.276,0-0.5,0.224-0.5,0.5v1   c0,0.276,0.224,0.5,0.5,0.5h1c0.276,0,0.5-0.224,0.5-0.5v-1C25,18.224,24.776,18,24.5,18z M24.5,22h-1c-0.276,0-0.5,0.224-0.5,0.5   v1c0,0.276,0.224,0.5,0.5,0.5h1c0.276,0,0.5-0.224,0.5-0.5v-1C25,22.224,24.776,22,24.5,22z"/>
</g>
</symbol><symbol id="view-manager" viewBox="7.02 12.11 33.72 26.62">
<g id="cogwheels_1_">
	<g id="cogwheel_4_">
		<path d="M30.81,25.599c0.066-0.505,0.11-1.016,0.11-1.539c0-0.524-0.045-1.034-0.11-1.539l-3.157-0.79    c-0.205-0.768-0.507-1.494-0.896-2.167l1.673-2.787c-0.63-0.817-1.361-1.549-2.179-2.179l-2.787,1.673    c-0.673-0.389-1.399-0.69-2.167-0.896l-0.79-3.157c-0.505-0.066-1.016-0.11-1.539-0.11c-0.524,0-1.034,0.045-1.539,0.11    l-0.79,3.157c-0.767,0.205-1.493,0.507-2.165,0.896l-2.788-1.674c-0.817,0.63-1.549,1.361-2.179,2.179l1.673,2.787    c-0.39,0.673-0.691,1.399-0.896,2.168l-3.157,0.79c-0.066,0.505-0.11,1.016-0.11,1.539c0,0.523,0.045,1.034,0.11,1.539l3.157,0.79    c0.205,0.768,0.507,1.495,0.896,2.167l-1.674,2.787c0.63,0.817,1.361,1.549,2.179,2.179l2.787-1.673    c0.673,0.389,1.399,0.691,2.167,0.895l0.79,3.157c0.505,0.065,1.016,0.11,1.539,0.11c0.523,0,1.034-0.045,1.539-0.11l0.79-3.157    c0.768-0.206,1.495-0.507,2.168-0.896l2.788,1.673c0.816-0.63,1.548-1.361,2.178-2.179l-1.674-2.787    c0.389-0.673,0.69-1.398,0.896-2.166L30.81,25.599z M18.969,28.24c-2.309,0-4.181-1.872-4.181-4.181s1.872-4.181,4.181-4.181    c2.309,0,4.181,1.872,4.181,4.181S21.277,28.24,18.969,28.24z"/>
	</g>
	<path d="M35,38.732c-0.25,0-0.496-0.021-0.738-0.053l-0.379-1.515l-0.056-0.016c-0.326-0.093-0.641-0.224-0.935-0.387l-0.051-0.028   l-1.337,0.803c-0.421-0.331-0.756-0.671-1.046-1.047l0.802-1.337l-0.028-0.051c-0.165-0.297-0.295-0.611-0.385-0.934l-0.016-0.056   l-1.516-0.379c-0.034-0.278-0.053-0.507-0.053-0.74c0-0.25,0.021-0.496,0.053-0.738l1.516-0.379l0.016-0.056   c0.09-0.321,0.22-0.636,0.386-0.935l0.028-0.051l-0.803-1.338c0.328-0.417,0.667-0.752,1.047-1.045l1.337,0.802l0.051-0.028   c0.297-0.165,0.611-0.295,0.934-0.385l0.056-0.016l0.379-1.516c0.278-0.034,0.507-0.053,0.738-0.053   c0.252,0,0.496,0.022,0.74,0.053l0.379,1.516l0.056,0.016c0.322,0.09,0.637,0.22,0.934,0.385l0.051,0.028l1.336-0.802   c0.421,0.331,0.757,0.669,1.048,1.045l-0.803,1.338l0.028,0.051c0.163,0.294,0.294,0.608,0.387,0.935l0.016,0.056l1.515,0.379   c0.034,0.278,0.053,0.507,0.053,0.738c0,0.252-0.021,0.498-0.053,0.74l-1.515,0.379l-0.016,0.056   c-0.094,0.326-0.224,0.641-0.387,0.934l-0.027,0.051l0.802,1.336c-0.331,0.421-0.669,0.757-1.045,1.048l-1.337-0.804l-0.051,0.028   c-0.293,0.163-0.608,0.294-0.936,0.388l-0.056,0.016L35.74,38.68C35.461,38.714,35.233,38.732,35,38.732z M35,30.848   c-1.184,0-2.147,0.963-2.147,2.146c0,1.185,0.963,2.149,2.147,2.149c1.185,0,2.148-0.964,2.148-2.149   C37.148,31.81,36.185,30.848,35,30.848z"/>
</g>
</symbol><symbol id="view-options" viewBox="11 12 26 24">
<g id="tree-structure_2_">
	<path d="M19,15v-2c0-0.55,0.45-1,1-1h8c0.55,0,1,0.45,1,1v2c0,0.55-0.45,1-1,1h-8C19.45,16,19,15.55,19,15z M27,32h-6   c-0.55,0-1,0.45-1,1v2c0,0.55,0.45,1,1,1h6c0.55,0,1-0.45,1-1v-2C28,32.45,27.55,32,27,32z M18,32h-6c-0.55,0-1,0.45-1,1v2   c0,0.55,0.45,1,1,1h6c0.55,0,1-0.45,1-1v-2C19,32.45,18.55,32,18,32z M36,32h-6c-0.55,0-1,0.45-1,1v2c0,0.55,0.45,1,1,1h6   c0.55,0,1-0.45,1-1v-2C37,32.45,36.55,32,36,32z M17.976,28H16v-4h7v4h-1.976L24,31l2.976-3H25v-4h7v4h-1.976L33,31l2.976-3H34   v-5.5c0-0.275-0.225-0.5-0.5-0.5H25v-5h-2v5h-8.5c-0.275,0-0.5,0.225-0.5,0.5V28h-1.976L15,31L17.976,28z"/>
</g>
</symbol><symbol id="view" viewBox="9.48 15.58 29.74 16.38">
<g id="eye-open_2_">
	<path d="M24.347,15.583c-9.844,0-14.868,8.906-14.868,8.906s7.065,7.469,14.868,7.469s14.868-7.469,14.868-7.469   S34.19,15.583,24.347,15.583z M23.477,24.854l-0.734,0.734c-0.538-0.342-0.941-0.859-1.178-1.459l0.813-0.812   C22.471,23.993,22.885,24.567,23.477,24.854z M20.34,23.052c0,2.212,1.794,4.009,4.007,4.009s4.007-1.797,4.007-4.009   c0-1.37-0.691-2.579-1.742-3.302c1.092,0.167,2.15,0.441,3.154,0.782c0.357,0.767,0.562,1.618,0.562,2.52   c0,3.304-2.678,5.981-5.981,5.981s-5.982-2.678-5.982-5.981c0-0.88,0.195-1.714,0.537-2.466c0.997-0.36,2.059-0.656,3.175-0.832   C21.029,20.477,20.34,21.684,20.34,23.052z M16.444,21.658c-0.079,0.453-0.129,0.917-0.129,1.394c0,2.181,0.871,4.154,2.28,5.601   c-2.918-1.272-5.216-3.159-6.312-4.164C13.092,23.745,14.559,22.637,16.444,21.658z M29.997,28.759   c1.47-1.455,2.381-3.474,2.381-5.707c0-0.517-0.054-1.021-0.146-1.511c2.108,1.006,3.771,2.176,4.615,2.949   C35.723,25.522,33.156,27.486,29.997,28.759z"/>
</g>
</symbol><symbol id="volume-up" viewBox="12 11.97 23.75 24.08">
<g id="volume-up_2_">
	<path d="M35.75,24c0,4.558-1.596,8.748-4.253,12.049l-1.546-1.267C32.325,31.826,33.75,28.077,33.75,24   c0-4.089-1.433-7.848-3.819-10.808l1.581-1.223C34.16,15.268,35.75,19.451,35.75,24z M28.35,14.414l-1.582,1.223   C28.631,17.92,29.75,20.831,29.75,24c0,3.116-1.084,5.982-2.892,8.248l1.546,1.268c2.091-2.611,3.346-5.919,3.346-9.516   C31.75,20.371,30.474,17.035,28.35,14.414z M25.186,16.859l-1.583,1.225C24.941,19.69,25.75,21.752,25.75,24   c0,2.155-0.747,4.137-1.988,5.711l1.551,1.27c1.523-1.92,2.438-4.345,2.438-6.98C27.75,21.291,26.787,18.803,25.186,16.859z    M22,16.292c0-0.275-0.168-0.35-0.373-0.167l-4.855,4.563c-0.205,0.183-0.599,0.333-0.873,0.333H12.5c-0.275,0-0.5,0.225-0.5,0.5   V25.5c0,0.275,0.225,0.5,0.5,0.5h3.464c0.274,0,0.663,0.154,0.863,0.344l4.81,4.562C21.837,31.095,22,31.024,22,30.75V16.292z"/>
</g>
</symbol><symbol id="warning" viewBox="10.92 11.04 26.16 22.96">
<g id="alert_2_">
	<path d="M36.845,32.268L25,11.751c-0.55-0.953-1.45-0.953-2,0L11.155,32.268c-0.55,0.953-0.1,1.732,1,1.732h23.691   C36.945,34,37.395,33.221,36.845,32.268z M26,31.5c0,0.275-0.225,0.5-0.5,0.5h-3c-0.275,0-0.5-0.225-0.5-0.5v-3   c0-0.275,0.225-0.5,0.5-0.5h3c0.275,0,0.5,0.225,0.5,0.5V31.5z M26,22.5c0,0.275-0.044,0.721-0.098,0.99l-0.9,2.77   C24.949,26.529,24.68,27,24.404,27h-0.785c-0.275,0-0.545-0.471-0.6-0.74l-0.92-2.645c-0.055-0.27-0.1-0.84-0.1-1.115v-4   c0-0.275,0.225-0.5,0.5-0.5h3c0.275,0,0.5,0.225,0.5,0.5V22.5z"/>
</g>
</symbol><symbol id="zoom-in" viewBox="13.25 12.25 24.37 24.37">
<g id="zoom-in_2_">
	<path d="M37.469,34.257l-2.213,2.212c-0.202,0.202-0.534,0.202-0.736,0l-6.098-6.099c-1.537,0.993-3.362,1.577-5.323,1.577   c-5.431,0-9.849-4.418-9.849-9.849c0-5.431,4.418-9.849,9.849-9.849c5.431,0,9.849,4.418,9.849,9.849   c0,1.961-0.584,3.786-1.576,5.323l6.098,6.098C37.672,33.722,37.672,34.054,37.469,34.257z M29.818,22.099   c0-3.706-3.014-6.72-6.72-6.72c-3.706,0-6.72,3.014-6.72,6.72c0,3.706,3.014,6.72,6.72,6.72   C26.805,28.818,29.818,25.805,29.818,22.099z M26.5,21H24v-2.5c0-0.275-0.225-0.5-0.5-0.5h-1c-0.275,0-0.5,0.225-0.5,0.5V21h-2.5   c-0.275,0-0.5,0.225-0.5,0.5v1c0,0.275,0.225,0.5,0.5,0.5H22v2.5c0,0.275,0.225,0.5,0.5,0.5h1c0.275,0,0.5-0.225,0.5-0.5V23h2.5   c0.275,0,0.5-0.225,0.5-0.5v-1C27,21.225,26.775,21,26.5,21z"/>
</g>
</symbol><symbol id="zoom-out" viewBox="13 12.25 24.37 24.37">
<g id="zoom-out_2_">
	<path d="M19.5,23c-0.275,0-0.5-0.225-0.5-0.5v-1c0-0.275,0.225-0.5,0.5-0.5h7c0.275,0,0.5,0.225,0.5,0.5v1   c0,0.275-0.225,0.5-0.5,0.5H19.5z"/>
	<path d="M37.219,34.257l-2.213,2.212c-0.202,0.202-0.534,0.202-0.736,0l-6.098-6.099c-1.537,0.993-3.362,1.577-5.323,1.577   c-5.431,0-9.849-4.418-9.849-9.849c0-5.431,4.418-9.849,9.849-9.849c5.431,0,9.849,4.418,9.849,9.849   c0,1.961-0.584,3.786-1.576,5.323l6.098,6.098C37.422,33.722,37.422,34.054,37.219,34.257z M29.568,22.099   c0-3.706-3.014-6.72-6.72-6.72c-3.706,0-6.72,3.014-6.72,6.72c0,3.706,3.014,6.72,6.72,6.72   C26.555,28.818,29.568,25.805,29.568,22.099z"/>
</g>
</symbol></svg>